<?xml version="1.0" standalone="no"?>
<!DOCTYPE svg PUBLIC "-//W3C//DTD SVG 1.1//EN" "http://www.w3.org/Graphics/SVG/1.1/DTD/svg11.dtd" >
<svg xmlns="http://www.w3.org/2000/svg">
<metadata></metadata>
<defs>
<font id="urw_bookman_ldemibold" horiz-adv-x="1351" >
<font-face units-per-em="2048" ascent="1638" descent="-410" />
<missing-glyph horiz-adv-x="696" />
<glyph unicode="&#xfb01;" horiz-adv-x="1515" d="M45 0v168l64 14q76 16 92 51q12 27 12 105v516h-152v174h152v64q0 156 41 217q8 12 18 24q141 172 525 174q301 0 434 -116q63 -55 63 -127q0 -92 -94 -134l-57 -16l-41 -4q-121 0 -176 94q-8 14 -17 33q-35 78 -90 94l-61 8h-10q-127 0 -175 -73q-29 -45 -28 -197v-41 h755v-690q0 -109 31 -133q18 -14 60 -23l63 -14v-168h-639v168l64 14q66 14 79 51q10 29 11 105v321q-2 139 -13 156q-2 4 -10 12q-23 23 -65 25q-25 2 -90 2h-246v-516q0 -109 30 -133q18 -14 60 -23l63 -14v-168h-653z" />
<glyph unicode="&#xfb02;" horiz-adv-x="1515" d="M45 0v168l64 14q66 14 79 51q10 29 11 105v516h-138v174h138v37q0 156 51 238q10 14 22 32q129 172 521 172q102 0 507 -37v-1132q0 -109 31 -133q18 -14 60 -23l63 -14v-168h-639v168l64 14q66 14 79 51q10 29 11 105v690q0 147 -17 193q-39 104 -190 104 q-145 0 -199 -72q-31 -47 -33 -139v-45v-41h183v-174h-183v-516q0 -109 31 -133q18 -14 60 -23l63 -14v-168h-639z" />
<glyph horiz-adv-x="2048" />
<glyph horiz-adv-x="2048" />
<glyph unicode="&#xd;" horiz-adv-x="681" />
<glyph unicode=" "  horiz-adv-x="696" />
<glyph unicode="&#x09;" horiz-adv-x="696" />
<glyph unicode="&#xa0;" horiz-adv-x="696" />
<glyph unicode="!" horiz-adv-x="737" d="M168 1217q0 117 98 174q49 31 109 30q135 0 184 -118l14 -60l5 -47q0 -66 -50 -272q-53 -240 -71 -471v-11h-168q-25 256 -72 469q-49 225 -49 306zM182 168q0 100 90 156q46 28 101 28q106 0 159 -90q29 -45 29 -98q0 -104 -90 -162q-45 -29 -100 -29q-106 0 -160 93 q-29 47 -29 102z" />
<glyph unicode="&#x22;" horiz-adv-x="860" d="M23 1280q0 88 77 127q29 14 62 14q90 0 125 -80l14 -45v-18q0 -14 -8 -57l-82 -437h-98l-82 437q-8 43 -8 59zM477 1280q0 88 78 127q29 14 61 14q90 0 125 -80l15 -45v-18q0 -14 -8 -57l-82 -437h-99l-82 437q-8 43 -8 59z" />
<glyph unicode="#" d="M172 449v174h234l26 176h-203v174h230l61 422h176l-61 -422h178l61 422h177l-62 -422h191v-174h-215l-27 -176h184v-174h-209l-67 -449h-176l65 449h-176l-67 -449h-177l66 449h-209zM584 623h176l26 176h-176z" />
<glyph unicode="$" d="M98 377q0 106 90 145q33 14 70 15q96 0 143 -72q20 -29 21 -64q0 -6 -6 -43q-2 -10 -2 -28q0 -76 116 -111q61 -18 140 -18q205 0 276 106q27 41 27 88q0 84 -70 119q-37 20 -110 37l-183 43q-225 51 -288 84l-25 12q-147 76 -160 246q-2 14 -2 29q0 221 209 331 q117 63 283 74v279h129v-277q258 -20 381 -145q63 -66 63 -142q0 -90 -76 -120q-23 -8 -49 -9q-78 0 -127 68q-23 29 -28 76q-2 8 -5 24q-10 61 -127 93q-57 16 -120 16q-170 0 -222 -98l-12 -41q-2 -10 -2 -21q0 -74 62 -119q57 -37 221 -75l145 -33q301 -68 377 -217 q33 -63 33 -156q0 -225 -228 -342q-119 -61 -286 -78v-299h-129v299q-371 27 -488 195q-41 57 -41 129z" />
<glyph unicode="%" horiz-adv-x="1925" d="M25 971q0 254 168 372q98 68 231 68q217 0 321 -174l35 -70l23 -82q8 -51 8 -106q0 -258 -170 -373q-94 -63 -223 -63q-233 0 -336 184q-57 102 -57 244zM276 981q0 -305 142 -311q117 0 137 219q4 41 4 88q0 268 -113 303q-14 4 -28 4q-111 0 -135 -197q-6 -49 -7 -106z M434 0l871 1395h165l-876 -1395h-160zM1106 412q0 254 168 372q98 68 231 68q217 0 322 -174q66 -109 65 -258q0 -258 -170 -373l-61 -33q-74 -31 -162 -30q-231 0 -334 180q-59 104 -59 248zM1358 422q0 -305 141 -311q117 0 137 219q4 41 4 88q0 268 -112 303q-15 4 -29 4 q-111 0 -135 -197q-6 -49 -6 -106z" />
<glyph unicode="&#x26;" horiz-adv-x="1638" d="M43 399q0 164 113 293q14 14 28 29q61 55 164 94q-117 117 -117 266q0 182 162 279q104 61 248 61q209 0 311 -129q59 -74 60 -168q0 -162 -164 -280l-45 -29q188 -193 258 -311q66 154 65 235q0 55 -53 74l-59 14v160h538v-160q-147 -12 -188 -67l-23 -43 q-10 -25 -16 -64q-57 -219 -143 -321q98 -143 256 -158q23 -2 47 -2q47 0 96 4v-168q-86 -14 -219 -14q-209 0 -324 76q-29 18 -57 45q-176 -141 -416 -142q-270 0 -420 162q-102 111 -102 264zM399 449q0 -178 121 -242q47 -25 107 -25q106 0 223 72l-23 25q-14 16 -84 116 q-137 188 -258 283q-86 -74 -86 -229zM563 1133q0 -76 86 -179l6 -8l13 8q82 57 96 148q2 12 2 24q0 74 -61 101q-18 6 -37 6q-68 0 -97 -62q-8 -18 -8 -38z" />
<glyph unicode="'" horiz-adv-x="491" d="M86 1280q0 88 78 127q29 14 61 14q90 0 125 -80l15 -45v-18q0 -14 -9 -57l-82 -437h-98l-82 437q-8 43 -8 59z" />
<glyph unicode="(" horiz-adv-x="655" d="M98 377v438q0 375 152 545q111 121 256 143q39 4 86 6v-166q-106 -29 -154 -135q-4 -12 -10 -26q-37 -94 -45 -322q-2 -27 -2 -51v-426q0 -221 47 -369q4 -16 10 -28q45 -96 117 -125q16 -6 37 -11v-167q-129 2 -205 43q-4 4 -8 6q-281 152 -281 645z" />
<glyph unicode=")" horiz-adv-x="655" d="M41 -150q106 27 154 134q4 12 10 26q37 90 45 320q2 29 2 53v426q0 223 -47 369q-4 16 -10 28q-45 96 -117 125q-17 6 -37 12v166q127 -2 203 -43q6 -2 12 -6q281 -152 281 -645v-438q0 -375 -152 -545q-109 -119 -248 -141q-41 -6 -96 -8v167z" />
<glyph unicode="*" horiz-adv-x="942" d="M127 901q0 68 113 88l151 31l4 39l-153 24q-113 18 -113 88q0 68 55 99q20 12 41 12q41 0 94 -61l101 -117l39 14l-58 148q-16 45 -16 69q0 74 74 84q10 2 22 2q74 0 90 -57q4 -12 4 -25q0 -23 -16 -73l-51 -148l33 -24l98 120q49 63 96 64q51 0 82 -57q12 -25 12 -52 q0 -70 -112 -90l-152 -28l-4 -41l154 -25q113 -18 112 -88q0 -63 -55 -96q-18 -12 -39 -13q-43 0 -96 62l-100 117l-39 -17l55 -145q18 -47 18 -72q0 -68 -69 -82q-12 -2 -25 -2q-76 0 -92 58q-4 10 -4 22q0 29 16 76l52 145l-33 25l-99 -121q-49 -61 -98 -61q-51 0 -80 59 q-12 25 -12 49z" />
<glyph unicode="+" horiz-adv-x="1228" d="M104 602v240h398v381h237v-381h398v-240h-398v-381h-237v381h-398z" />
<glyph unicode="," horiz-adv-x="696" d="M160 160q0 106 90 159q39 23 88 23q121 0 168 -113q20 -47 20 -104q0 -201 -231 -371l-98 105q76 68 110 135q-147 31 -147 166z" />
<glyph unicode="-" horiz-adv-x="737" d="M41 430l96 221h559l-92 -221h-563z" />
<glyph unicode="." horiz-adv-x="696" d="M156 162q0 100 88 155q45 27 98 27q104 0 158 -88q27 -45 26 -96q0 -102 -88 -158q-45 -29 -98 -29q-102 0 -158 90q-27 45 -26 99z" />
<glyph unicode="/" horiz-adv-x="1228" d="M102 -283l766 1758h269l-766 -1758h-269z" />
<glyph unicode="0" d="M61 688q0 291 142 494q18 25 37 47q143 170 395 190q30 2 59 2q307 0 477 -235q137 -190 138 -484q0 -391 -226 -589l-67 -50q-143 -90 -332 -90q-334 0 -500 252q-123 184 -123 463zM444 705q0 -475 189 -535q25 -8 51 -8q174 0 225 299q16 102 17 235q0 438 -170 521 q-33 16 -72 16q-156 0 -213 -250q-18 -78 -25 -176q-2 -49 -2 -102z" />
<glyph unicode="1" d="M281 0v168l53 4q154 12 184 45q25 25 25 109v690q0 92 -23 112q-27 25 -176 33l-35 2l-28 2v160q14 -2 32 -2q6 0 148 8q94 6 307 55q29 6 35 9h98v-1069q0 -96 41 -123q33 -20 129 -27q41 -4 45 -4l47 -4v-168h-882z" />
<glyph unicode="2" d="M84 229q313 207 408 289q27 23 65 60q248 233 250 460q0 139 -119 187l-59 16q-18 2 -41 2q-119 0 -180 -63q-27 -25 -27 -52q0 -20 20 -53q33 -49 33 -96q0 -88 -84 -135q-41 -23 -86 -23q-111 0 -160 99q-20 43 -20 96q0 193 186 309q154 96 375 96q322 0 475 -172 l41 -55q53 -86 53 -193q0 -164 -149 -321q-31 -33 -70 -68q-156 -137 -450 -299q-25 -12 -49 -26h256q188 0 241 28q53 27 109 136q8 16 18 38l166 -45l-125 -444h-1044z" />
<glyph unicode="3" d="M76 313q0 113 88 164q39 25 88 25q106 0 156 -80q20 -35 20 -76q0 -27 -16 -70q-4 -12 -4 -16q0 -49 96 -80q59 -18 125 -18q180 0 239 135q23 51 23 113q0 127 -80 196l-12 8q-70 49 -234 50q-41 0 -76 -2v184l35 -2h23q127 0 190 35q82 49 94 157q2 12 3 25 q0 119 -115 158q-41 14 -90 14q-98 0 -164 -53q-27 -23 -27 -43q0 -10 15 -39q20 -35 20 -74q0 -90 -90 -133q-41 -18 -88 -19q-115 0 -158 99q-16 37 -16 82q0 174 184 280q154 88 373 88q297 0 450 -151q98 -96 99 -226q0 -145 -140 -239l-67 -35q-12 -6 -25 -10 q242 -59 287 -250q10 -39 10 -82q0 -145 -106 -264l-49 -45q-4 -2 -9 -6q-172 -129 -466 -140h-33q-287 0 -447 136q-106 88 -106 204z" />
<glyph unicode="4" d="M39 496q430 524 670 899h323v-848h297l-88 -199h-209v-76q0 -92 127 -100l51 -4v-168h-688v168l51 4q127 8 127 100v76h-589zM324 547h376v530q-70 -125 -307 -438q-31 -41 -69 -92z" />
<glyph unicode="5" d="M90 297q0 123 98 168q37 18 82 18q113 0 164 -88q23 -39 23 -86q0 -14 -8 -59q-2 -8 -3 -25q0 -51 84 -67q27 -6 56 -6q158 0 231 137q43 76 43 176q0 172 -112 260q-63 49 -142 49q-129 0 -231 -117q-31 -35 -53 -75q-18 6 -162 45v768h497q246 2 277 12q2 0 8 2 q31 16 55 74h166l-59 -375h-744v-244q156 109 379 109q276 0 428 -174q109 -127 109 -305q0 -264 -219 -410l-80 -43q-150 -68 -344 -68q-303 0 -455 138q-88 80 -88 186z" />
<glyph unicode="6" d="M70 659q0 391 209 596q12 10 22 21q164 145 438 145q254 0 402 -114q92 -72 92 -162q0 -92 -84 -137l-47 -17q-16 -4 -35 -4q-106 0 -149 82q-14 27 -19 59q-6 59 -18 74q-31 41 -123 41q-186 0 -279 -180q-25 -49 -39 -107q-4 -10 -6 -22q-10 -41 -18 -131 q158 117 381 117q254 0 397 -166q104 -123 104 -295q0 -252 -213 -387q-158 -98 -389 -99q-438 0 -573 355q-53 141 -53 331zM442 434q0 -207 150 -258q41 -14 90 -14q178 0 227 164q16 53 17 118q0 190 -129 254l-54 19q-24 4 -51 4q-164 0 -225 -148l-18 -67 q-6 -33 -7 -72z" />
<glyph unicode="7" d="M74 967l67 428h1127l26 -211q-135 -109 -297 -385q-242 -410 -247 -748v-22q0 -16 2 -29h-418q20 305 301 707q164 231 379 436h-508q-139 0 -184 -33t-101 -164z" />
<glyph unicode="8" d="M74 375q0 221 250 319q-195 98 -195 301q0 145 107 258q158 168 452 168q301 0 445 -149l38 -49q43 -68 43 -152q0 -170 -180 -278q-6 -5 -14 -9q231 -92 268 -264q8 -39 8 -82q0 -233 -215 -362q-172 -102 -428 -103q-340 0 -493 172q-86 96 -86 230zM346 379 q0 -156 178 -201q59 -16 138 -16q231 0 288 114q14 29 15 64q-1 110 -220 188l-219 78q-147 -63 -172 -164q-8 -29 -8 -63zM461 1090q0 -47 43 -86q39 -34 166 -89l129 -55q121 82 139 154q4 20 4 43q0 113 -129 157q-33 10 -74 17q-27 2 -53 2q-156 0 -209 -84l-14 -37 q-2 -12 -2 -22z" />
<glyph unicode="9" d="M68 928q0 231 196 372q168 121 414 121q283 0 446 -161q6 -8 13 -15q166 -176 166 -526q0 -385 -203 -574q-184 -172 -488 -172q-260 0 -399 117q-80 68 -80 154q0 94 84 139q35 18 78 18q98 0 147 -82q12 -23 33 -94q16 -63 143 -63q188 0 275 178q49 103 49 246 q-147 -117 -373 -117q-256 0 -399 168q-102 121 -102 291zM424 958q0 -188 127 -256q47 -25 108 -24q174 0 238 143q25 57 25 133q0 197 -140 258q-47 21 -106 21q-170 0 -230 -143q-23 -57 -22 -132z" />
<glyph unicode=":" horiz-adv-x="696" d="M156 162q0 100 88 155q45 27 98 27q104 0 158 -88q27 -45 26 -96q0 -102 -88 -158q-45 -29 -98 -29q-102 0 -158 90q-27 45 -26 99zM156 874q0 100 88 156q45 27 98 27q104 0 158 -88q27 -45 26 -97q0 -102 -88 -157q-45 -29 -98 -29q-102 0 -158 90q-27 45 -26 98z" />
<glyph unicode=";" horiz-adv-x="696" d="M154 874q0 100 88 156q45 27 98 27q104 0 158 -88q27 -45 26 -97q0 -102 -88 -157q-45 -29 -98 -29q-102 0 -158 90q-27 45 -26 98zM162 160q0 109 90 159q39 23 88 23q121 0 170 -111q20 -47 20 -106q0 -201 -233 -371l-98 105q76 68 110 135q-147 31 -147 166z" />
<glyph unicode="&#x3c;" horiz-adv-x="1228" d="M100 602v227l1043 488v-264l-719 -336l719 -338v-264z" />
<glyph unicode="=" horiz-adv-x="1228" d="M104 408v239h1033v-239h-1033zM104 797v239h1033v-239h-1033z" />
<glyph unicode="&#x3e;" horiz-adv-x="1228" d="M98 115v264l719 338l-719 336v264l1043 -488v-227z" />
<glyph unicode="?" d="M125 1042q0 172 180 283q156 96 379 96q369 0 504 -190q57 -84 57 -197q0 -258 -274 -377q-125 -55 -152 -100q-16 -33 -16 -96v-17h-205q-4 25 -4 68q0 129 49 197q35 47 129 120q100 82 100 199q0 145 -120 197q-45 18 -101 18q-125 0 -186 -61q-23 -23 -23 -47 q0 -14 17 -54q14 -39 14 -73q0 -98 -90 -140q-37 -16 -80 -16q-135 0 -170 121q-8 31 -8 69zM520 168q0 100 88 156q48 28 101 28q109 0 163 -90q27 -45 27 -98q0 -104 -90 -162q-45 -29 -100 -29q-106 0 -160 93q-29 47 -29 102z" />
<glyph unicode="@" horiz-adv-x="1679" d="M123 676v33q0 287 194 491q25 27 52 49q176 150 417 178q43 6 86 7q227 0 422 -129q35 -23 66 -50q176 -152 190 -383q2 -18 2 -36q0 -244 -194 -387q-20 -16 -43 -29q-123 -72 -228 -72q-135 0 -163 107q-90 -106 -226 -107q-150 0 -223 125q-41 72 -41 164 q0 188 139 319q117 106 265 107q109 0 182 -64l10 52h193l-80 -435q-10 -51 -10 -69q0 -41 36 -51q6 -2 13 -2q33 0 88 38q133 96 133 279q0 221 -174 363q-147 121 -357 120q-276 0 -448 -186q-152 -164 -152 -397q0 -276 193 -449q166 -150 407 -149q340 0 523 264h143 q-201 -360 -580 -400q-43 -4 -86 -4q-305 0 -522 207q-213 203 -227 496zM666 604q0 -106 73 -121q8 -2 19 -2q78 0 137 109q43 71 92 311q-63 43 -113 43q-92 0 -155 -123q-53 -96 -53 -217z" />
<glyph unicode="A" horiz-adv-x="1474" d="M-70 0v168l33 4q102 16 158 94q35 49 82 156l405 973h318l401 -1000q57 -152 98 -184q29 -25 105 -39l33 -4v-168h-748v168l51 4q121 8 121 61q0 31 -22 89l-62 174h-440l-66 -177q-18 -41 -18 -73q0 -49 115 -68q16 -4 36 -6l33 -4v-168h-633zM528 670h308l-152 399z " />
<glyph unicode="B" horiz-adv-x="1474" d="M41 0v168l41 4q100 10 123 57q16 33 16 115v707q0 117 -43 145q-29 18 -96 27l-41 4v168h778q305 0 426 -105q113 -100 113 -246q0 -164 -144 -264l-53 -30q221 -72 254 -277q4 -31 4 -63q0 -188 -139 -306l-51 -36q-109 -61 -297 -68h-72h-819zM580 287q0 -49 16 -68 q33 -37 162 -37q209 0 268 144q20 47 21 104q0 168 -154 207l-88 12q-27 2 -55 2h-170v-364zM580 840h163q217 0 258 125q8 23 9 49q0 135 -154 174q-49 12 -108 12q-139 0 -158 -35q-10 -14 -10 -71v-254z" />
<glyph unicode="C" horiz-adv-x="1515" d="M72 698q0 307 186 514q37 41 82 76q176 133 432 133q188 0 342 -73l16 47h142l172 -484l-158 -59q-111 190 -170 256q-141 145 -291 145q-203 0 -299 -213q-61 -139 -61 -340q0 -307 160 -448q102 -90 233 -90q152 0 285 110q10 8 18 17q68 60 154 205l168 -86 q-88 -236 -326 -355q-162 -80 -350 -80q-334 0 -543 220q-193 201 -192 505z" />
<glyph unicode="D" horiz-adv-x="1597" d="M41 0v168l41 4q100 10 123 57q16 33 16 115v707q0 117 -43 145q-29 18 -96 27l-41 4v168h651q315 0 447 -56q78 -33 164 -106q229 -199 229 -541q0 -285 -162 -471q-133 -156 -338 -196q-82 -18 -192 -23q-47 -2 -101 -2h-698zM580 332q0 -102 10 -115q2 -2 8 -6 q33 -27 119 -27q231 0 346 199q76 133 76 324q0 317 -191 442q-94 61 -221 61q-115 0 -137 -45q-10 -20 -10 -63v-770z" />
<glyph unicode="E" horiz-adv-x="1474" d="M41 0v168l41 4q100 10 123 57q16 33 16 115v707q0 117 -43 145q-29 18 -96 27l-41 4v168h1182l202 -422l-139 -70q-203 293 -467 307h-22q-168 0 -199 -41q-18 -23 -18 -120v-29v-174h59q121 0 154 24q53 41 55 199h160v-637h-160q-18 143 -70 191q-36 34 -135 34h-6h-57 v-241q0 -158 10 -183q20 -49 160 -49q274 0 483 232q53 59 106 135l144 -68l-226 -483h-1216z" />
<glyph unicode="F" horiz-adv-x="1392" d="M41 0v168l41 4q100 10 123 57q16 33 16 115v707q0 117 -43 145q-29 18 -96 27l-41 4v168h1169l195 -420l-141 -72q-162 219 -334 273q-75 24 -170 24h-8q-125 0 -154 -37q-18 -27 -18 -137v-192h59q117 0 149 30q4 4 9 8q37 39 51 185h151v-664h-151q-14 170 -70 213 q-35 25 -123 27h-28h-47v-289q0 -102 24 -129q29 -35 115 -43l55 -4v-168h-733z" />
<glyph unicode="G" horiz-adv-x="1597" d="M72 696q0 336 213 541q190 184 479 184q172 0 321 -67q18 -10 35 -19l31 60h131l125 -469l-147 -52q-80 143 -142 205q-139 143 -315 144q-176 0 -271 -199q-67 -141 -67 -348v-6q0 -276 147 -414q88 -84 207 -84q135 0 221 100q57 66 58 144q0 131 -180 133v168h665 v-168l-33 -4q-92 -10 -114 -58q-14 -33 -15 -114v-391h-223l-47 118q-106 -59 -139 -73q-129 -53 -283 -54q-252 0 -424 150q-8 6 -16 14q-166 154 -207 428q-10 66 -10 131z" />
<glyph unicode="H" horiz-adv-x="1679" d="M41 0v168l41 4q100 10 123 57q16 33 16 115v707q0 117 -43 145q-29 18 -96 27l-41 4v168h719v-168l-41 -4q-100 -10 -123 -58l-12 -47l-4 -67v-201h520v201q0 117 -43 145q-29 18 -96 27l-41 4v168h718v-168l-41 -4q-100 -10 -122 -58l-13 -47l-4 -67v-707 q0 -117 43 -145q29 -18 96 -27l41 -4v-168h-718v168l41 4q100 10 122 57q16 33 17 115v307h-520v-307q0 -117 43 -145q29 -18 96 -27l41 -4v-168h-719z" />
<glyph unicode="I" horiz-adv-x="819" d="M41 0v168l49 4q86 6 115 43q24 27 24 129v707q0 102 -24 129q-29 37 -115 43l-49 4v168h735v-168l-49 -4q-86 -6 -115 -43q-24 -26 -24 -121v-8v-707q0 -102 24 -129q29 -37 115 -43l49 -4v-168h-735z" />
<glyph unicode="J" horiz-adv-x="1310" d="M-25 387q0 145 105 207q45 27 102 27q98 0 142 -82q16 -35 16 -74q0 -70 -55 -133q-18 -20 -19 -35q0 -53 92 -90q59 -25 127 -25q135 0 201 82q4 4 6 8q43 59 43 201v578q0 117 -43 145l-41 16l-55 11l-41 4v168h719v-168l-41 -4q-100 -10 -123 -58l-12 -47l-4 -67v-557 q0 -205 -31 -271q-14 -27 -41 -59q-117 -147 -377 -182q-59 -8 -123 -9q-289 0 -442 160q-104 106 -105 254z" />
<glyph unicode="K" horiz-adv-x="1638" d="M41 0v168l41 4q100 10 123 57q16 33 16 115v707q0 117 -43 145q-29 18 -96 27l-41 4v168h704v-168l-26 -4q-100 -14 -121 -49l-14 -39q-4 -27 -4 -84v-277l344 328q66 72 67 84q0 18 -18 26l-84 15h-35v168h692v-168q-176 -23 -313 -121l-103 -84q-20 -16 -43 -37 l-83 -78l299 -469q113 -176 172 -219q49 -35 155 -51v-168h-776v168l37 4q111 12 121 33q4 6 4 20q0 23 -25 58q-31 49 -33 51l-210 348l-168 -145v-193q0 -111 30 -137q25 -23 109 -35l26 -4v-168h-704z" />
<glyph unicode="L" horiz-adv-x="1310" d="M41 0v168l41 4q100 10 123 57q16 33 16 115v707q0 117 -43 145q-29 18 -96 27l-41 4v168h719v-168l-41 -4q-100 -10 -123 -58l-12 -47l-4 -67v-680q0 -129 8 -148q18 -39 117 -39q309 0 522 379l141 -76l-213 -487h-1114z" />
<glyph unicode="M" horiz-adv-x="1925" d="M41 0v168l41 4q100 10 123 57q16 33 16 115v707q0 117 -43 145q-29 18 -96 27l-41 4v168h637l283 -873l290 873h641v-168l-41 -4q-100 -10 -122 -58l-13 -47l-4 -67v-707q0 -117 43 -145q29 -18 96 -27l41 -4v-168h-718v168l40 4q100 10 123 57q16 33 17 115v711 l-359 -1055h-221l-352 1069v-725q0 -117 43 -145q29 -18 96 -27l41 -4v-168h-561z" />
<glyph unicode="N" horiz-adv-x="1515" d="M41 0v168l41 4q100 10 123 57q16 33 16 115v707q0 117 -43 145q-29 18 -96 27l-41 4v168h604l467 -805v461q0 117 -43 145q-29 18 -96 27l-41 4v168h551v-168l-41 -4q-100 -10 -123 -58l-12 -47l-4 -67v-1051h-254l-637 1077v-733q0 -117 43 -145q29 -18 96 -27l41 -4 v-168h-551z" />
<glyph unicode="O" horiz-adv-x="1638" d="M72 684q0 326 221 535q212 202 536 202q299 0 510 -176q236 -199 236 -536q0 -309 -217 -519q-227 -213 -555 -217q-260 0 -459 148q-272 205 -272 563zM465 692q0 -227 92 -370q4 -6 8 -13q78 -109 217 -125q18 -2 37 -2q190 0 291 193q72 135 72 330q0 346 -183 460 q-74 47 -168 47q-188 0 -290 -184q-76 -137 -76 -336z" />
<glyph unicode="P" d="M41 0v168l41 4q100 10 123 57q16 33 16 115v707q0 117 -43 145q-29 18 -96 27l-41 4v168h735q266 0 379 -66q16 -10 33 -22q147 -102 160 -299v-29q0 -328 -371 -397q-90 -16 -203 -17h-194v-221q0 -117 43 -145q29 -18 96 -27l41 -4v-168h-719zM580 752q33 -4 67 -4 q244 0 295 157q12 37 12 78q0 139 -116 197q-51 26 -114 26h-5q-102 0 -125 -37q-14 -18 -14 -112v-305z" />
<glyph unicode="Q" horiz-adv-x="1638" d="M72 686q0 326 223 535q212 200 533 200h3q332 0 545 -211q199 -199 199 -493q0 -240 -119 -416q-2 -6 -6 -10q131 -152 137 -281q0 -201 -221 -336q-223 -137 -559 -137q-334 0 -541 123q-143 84 -143 190q0 82 76 125q35 18 73 19q76 0 123 -57q27 -33 41 -97 q8 -49 53 -73q84 -51 261 -52q285 0 428 115q77 60 77 137q0 64 -45 115q-197 -109 -409 -109q-319 0 -529 211q-201 201 -200 502zM465 694q0 -274 133 -426q-2 8 -2 19q0 94 123 157q92 49 209 50q84 0 217 -35q37 115 37 268q0 287 -154 416q-83 69 -194 69h-3 q-147 0 -231 -96q-125 -143 -135 -387v-35zM745 231q0 -47 95 -49q88 1 164 54q-74 47 -158 47q-90 0 -101 -52z" />
<glyph unicode="R" horiz-adv-x="1597" d="M41 0v168l41 4q100 10 123 57q16 33 16 115v707q0 117 -43 145q-29 18 -96 27l-41 4v168h797q276 0 419 -68q129 -63 175 -207q14 -49 14 -98q0 -209 -189 -320q-67 -39 -153 -59l258 -334q74 -98 137 -123q39 -12 105 -18v-168h-476l-442 600h-106v-256q0 -117 43 -145 q29 -18 96 -27l41 -4v-168h-719zM580 795h145q131 0 205 41q92 59 98 165q0 94 -67 150q-63 53 -224 53q-92 0 -131 -20q-25 -33 -26 -70v-319z" />
<glyph unicode="S" d="M43 500l154 51q66 -117 147 -209q152 -158 363 -170h26q166 0 232 98q27 37 26 84q0 70 -69 105q-41 18 -127 41l-203 51q-256 63 -322 100l-32 19q-141 92 -154 274q-2 14 -2 31q0 217 180 346q143 100 348 100q185 0 328 -92l25 66h122l136 -416l-148 -55 q-80 111 -127 159q-106 115 -270 136q-27 4 -51 4q-152 0 -207 -82q-12 -18 -17 -39q-2 -12 -2 -23q0 -82 133 -121q20 -6 48 -12q92 -20 100 -22l186 -50q215 -59 285 -102q4 -4 8 -6q131 -86 148 -262q2 -20 2 -39q0 -227 -187 -369q-160 -123 -393 -123q-209 0 -352 95 l-15 10l-28 -101h-121z" />
<glyph unicode="T" horiz-adv-x="1433" d="M-8 971l153 424h1129l166 -424l-150 -60q-78 129 -123 174q-4 4 -10 11q-116 112 -223 112h-2q-33 0 -37 -14l-4 -57v-793q0 -102 24 -129q31 -37 115 -43l62 -4v-168h-760v168l61 4q80 4 115 43q24 26 24 121v8v786q0 66 -18 72q-6 2 -16 2q-145 0 -267 -147l-47 -70 q-23 -37 -39 -76z" />
<glyph unicode="U" horiz-adv-x="1515" d="M31 1227v168h719v-168l-41 -4q-100 -10 -123 -58l-13 -47l-4 -67v-541q0 -154 47 -221q6 -10 15 -19q68 -82 196 -82q117 0 191 58q76 61 84 211v47v547q0 117 -43 145q-29 18 -96 27l-41 4v168h561v-168l-41 -4q-100 -10 -123 -58l-12 -47l-4 -67v-537q0 -242 -62 -338 q-25 -39 -63 -74q-127 -113 -367 -127q-25 -2 -51 -2q-244 0 -402 115l-41 33q-86 84 -100 219q-6 53 -6 131v580q0 117 -43 145q-29 18 -96 27z" />
<glyph unicode="V" horiz-adv-x="1474" d="M-41 1227v168h754v-168l-31 -4q-127 -16 -141 -43l-6 -25q0 -25 16 -65l264 -719l250 712q12 39 12 62q0 51 -43 63q-27 8 -84 15l-35 4v168h580v-168l-25 -4q-98 -12 -145 -78q-29 -39 -59 -119l-392 -1026h-278l-406 1061q-39 104 -79 129q-33 20 -123 33z" />
<glyph unicode="W" horiz-adv-x="1925" d="M-41 1227v168h616v-168q-86 -2 -86 -58q0 -27 11 -63l178 -670l160 492l-68 186q-33 86 -74 103q-23 10 -57 10v168h639v-168l-49 -6q-82 -10 -90 -45l-2 -17q0 -27 8 -59l188 -678l199 672q6 31 6 45q0 66 -113 78q-33 6 -43 6l-26 4v168h616v-168l-33 -4 q-104 -16 -141 -58q-37 -39 -86 -182l-319 -983h-269l-190 637l-203 -637h-264l-336 1059q-39 127 -102 153q-29 12 -70 15z" />
<glyph unicode="X" horiz-adv-x="1597" d="M2 0v168q125 8 229 125q12 12 23 26l311 383l-241 322q-98 137 -150 168q-43 27 -133 35v168h762v-168q-109 -4 -121 -25q-4 -6 -4 -20q0 -23 20 -54l152 -215l149 211q27 39 27 58q-14 41 -106 45h-33v168h641v-168q-190 -27 -332 -189q-14 -18 -29 -37l-200 -253 l276 -361q129 -156 201 -190q35 -18 82 -25l51 -4v-168h-801v168l41 4q96 12 96 41q0 20 -24 51l-205 289l-176 -254q-33 -51 -33 -68q0 -49 111 -59l51 -4v-168h-635z" />
<glyph unicode="Y" horiz-adv-x="1433" d="M-41 1227v168h778v-168q-152 -2 -159 -49q0 -12 32 -74l168 -305l160 264q57 96 57 119q0 33 -69 41q-31 4 -82 4v168h626v-168q-141 -8 -231 -103l-55 -67q-18 -27 -39 -58l-264 -409v-246q0 -102 24 -129q29 -35 115 -43l57 -4v-168h-751v168l57 4q86 8 115 43 q24 26 24 121v8v221l-286 449q-90 147 -170 186q-43 20 -107 27z" />
<glyph unicode="Z" horiz-adv-x="1310" d="M12 133l781 1075q-90 8 -123 9q-348 0 -516 -328l-142 59l203 447h989l35 -131l-774 -1071q86 -14 145 -15q248 0 391 127q94 80 148 223l151 -49l-182 -479h-1073z" />
<glyph unicode="[" horiz-adv-x="614" d="M154 -283v1758h430v-160h-60q-70 0 -82 -43q-6 -18 -6 -53v-1246q0 -78 41 -90q16 -6 47 -6h60v-160h-430z" />
<glyph unicode="\" horiz-adv-x="1228" d="M102 1485h275l760 -1485h-275z" />
<glyph unicode="]" horiz-adv-x="614" d="M43 -123h59q72 0 84 43q6 18 7 53v1246q0 76 -39 90l-50 6h-2h-59v160h430v-1758h-430v160z" />
<glyph unicode="^" horiz-adv-x="1228" d="M106 651l429 828h174l426 -828h-244l-268 512l-273 -512h-244z" />
<glyph unicode="_" horiz-adv-x="1024" d="M0 -195h1024v-122h-1024v122z" />
<glyph unicode="`" horiz-adv-x="819" d="M139 1362q0 84 74 129q33 20 70 20q76 0 172 -84l215 -192l-41 -100l-326 69q-164 37 -164 158z" />
<glyph unicode="a" horiz-adv-x="1187" d="M57 262q0 233 308 326q133 41 299 55v105q0 110 -127 110h-2q-72 0 -113 -37q-18 -14 -19 -53q0 -68 -28 -102q-45 -55 -129 -56q-92 0 -135 82q-16 33 -17 72q0 141 166 223q121 59 289 60q248 0 369 -111q78 -76 77 -227v-404q2 -78 9 -92q8 -23 34 -23q14 0 37 23 q7 4 15 12l114 -139q-131 -104 -260 -104q-137 0 -221 88q-8 8 -14 16q-154 -104 -326 -104q-197 0 -283 131q-43 66 -43 149zM406 305q0 -80 67 -98q14 -4 29 -4h2q83 0 160 71v205q-256 -47 -258 -174z" />
<glyph unicode="b" horiz-adv-x="1228" d="M-41 1229v166q137 0 326 78q12 4 24 10h133v-496q139 59 250 60q233 0 367 -187q104 -145 104 -352q0 -264 -172 -414q-128 -112 -306 -112h-3q-113 0 -229 53l-64 31l-37 -66h-241v1059q0 113 -39 141l-39 17q-16 4 -43 8zM442 262q66 -72 166 -72q184 0 205 279 q2 31 2 66q0 283 -164 311l-33 2q-100 0 -176 -78v-508z" />
<glyph unicode="c" horiz-adv-x="1187" d="M63 514q0 285 207 430q143 102 355 103q231 0 366 -123q88 -78 88 -179q0 -102 -88 -147q-37 -20 -82 -20q-92 0 -145 69q-25 35 -25 70l2 59q0 47 -61 72q-27 10 -55 10q-139 0 -183 -180q-14 -63 -14 -146q0 -229 125 -315q53 -37 119 -37q178 0 289 201l165 -86 q-90 -219 -329 -289q-83 -24 -179 -24h-8q-276 0 -430 186q-117 141 -117 346z" />
<glyph unicode="d" horiz-adv-x="1310" d="M63 502q0 254 164 413q135 131 322 132q129 0 235 -60v72q0 111 -36 139l-35 16q-18 6 -49 11l-29 4v166q170 14 373 88h108v-1147q0 -109 29 -133q18 -14 61 -23l68 -14v-166h-459v78q-111 -96 -283 -96q-162 0 -272 88q-170 131 -192 368q-4 31 -5 64zM412 498 q0 -193 98 -271q40 -30 87 -30h3q104 0 178 79q4 3 6 7v483q-72 59 -163 59q-127 0 -183 -149q-26 -73 -26 -171v-7z" />
<glyph unicode="e" horiz-adv-x="1187" d="M63 518q0 260 185 410q145 119 354 119q246 0 387 -154l43 -53q6 -10 12 -21q54 -96 54 -299h-664l6 -94q33 -195 197 -219q20 -4 45 -4q152 0 268 174l172 -84q-63 -102 -114 -158q-150 -150 -387 -153q-270 0 -431 182q-127 145 -127 354zM446 678h289q-4 152 -90 174 q-20 6 -45 6q-119 0 -147 -129z" />
<glyph unicode="f" horiz-adv-x="778" d="M45 854v174h154v94q0 195 170 303q125 82 301 82q223 0 266 -118l8 -48v-2q0 -84 -84 -125q-39 -18 -82 -18q-59 0 -102 49q-10 12 -23 31q-16 23 -47 22q-68 0 -76 -92v-28v-150h193v-174h-193v-516q0 -104 29 -129q20 -16 74 -27l67 -14v-168h-651v168l60 14 q66 16 79 54q10 27 11 102v516h-154z" />
<glyph unicode="g" horiz-adv-x="1187" d="M18 -231q0 121 140 184q-102 76 -103 178q0 150 123 219q33 18 74 29q-141 109 -141 283q0 193 161 307q123 86 293 86q70 0 178 -25q53 72 91 107q92 72 200 77q100 0 144 -75q14 -27 16 -64q0 -72 -68 -104q-27 -12 -57 -13q-18 0 -49 11q-43 14 -64 14q-37 0 -63 -25 q154 -133 160 -299q0 -201 -170 -309q-119 -78 -285 -78q-88 0 -172 19q-25 4 -31 4q-35 -10 -43 -45q0 -43 54 -57q32 -9 112 -15l324 -28q309 -39 317 -273q0 -141 -104 -246l-45 -39q-12 -8 -23 -14q-160 -86 -436 -86q-193 0 -326 43q-203 66 -207 234zM250 -221 q0 -66 129 -101q74 -18 166 -18q297 0 297 98q0 47 -64 66q-35 8 -98 16l-363 39q-68 -41 -67 -100zM442 645q18 -193 140 -205q139 0 139 201q0 193 -96 219q-18 6 -43 6q-119 0 -136 -155z" />
<glyph unicode="h" horiz-adv-x="1392" d="M45 0v166l72 14q66 12 80 58q10 29 10 98v723q0 102 -27 129q-25 29 -94 37l-41 4v166l90 6q129 20 271 82h133v-529q164 92 317 93q141 0 234 -86q80 -72 86 -205v-31v-389q0 -109 32 -135q18 -12 58 -21l73 -14v-166h-612v166l27 10q68 27 80 51q10 23 10 109v362 q0 127 -86 127q-92 0 -189 -57q-18 -13 -30 -23v-409q0 -100 20 -121q14 -16 70 -39l26 -10v-166h-610z" />
<glyph unicode="i" horiz-adv-x="737" d="M45 0v166l66 14q66 14 79 51q10 29 11 105v295q0 123 -49 151q-23 12 -64 17l-43 4v166l361 59h126v-692q0 -106 29 -131q18 -14 62 -25l63 -14v-166h-641zM152 1294q0 104 92 166q51 35 110 35q113 0 168 -94q27 -47 27 -101q0 -109 -92 -170q-50 -32 -107 -32h-4 q-109 0 -166 92q-29 47 -28 104z" />
<glyph unicode="j" horiz-adv-x="696" d="M-193 -291q0 86 82 121q31 14 68 14q57 0 102 -41q16 -14 39 -39q28 -28 56 -28h2q76 0 75 139v756q0 119 -43 147l-41 17l-28 4l-37 4v166l354 59h127v-1055q0 -162 -49 -239q-4 -8 -8 -15q-113 -168 -379 -180q-20 -2 -41 -2q-213 0 -266 113q-12 27 -13 59zM184 1296 q0 106 90 168q50 33 107 33q109 0 162 -94l20 -49q6 -27 6 -54q0 -106 -90 -170q-48 -32 -103 -32h-3q-102 0 -158 92q-31 49 -31 106z" />
<glyph unicode="k" d="M45 0v166l59 14q66 16 80 53q10 27 11 103v723q0 111 -37 139l-35 16q-18 6 -49 11l-29 4v166q139 0 332 82q8 2 16 6h133v-860l133 143q41 45 41 59q0 33 -53 35l-22 2v166h592v-166l-29 -2q-88 -12 -154 -57q-6 -4 -14 -10l-180 -134l278 -389q59 -88 162 -100l37 -4 v-166h-625v166l23 4q45 6 45 35q0 16 -21 49l-137 213l-76 -68v-63q0 -74 17 -105q23 -49 78 -59l28 -6v-166h-604z" />
<glyph unicode="l" horiz-adv-x="696" d="M18 0v166l66 14q66 14 80 51q10 29 10 105v723q0 102 -27 129q-31 31 -94 37l-35 4v166q188 16 353 88h135v-1147q0 -106 29 -131q18 -14 61 -25l63 -14v-166h-641z" />
<glyph unicode="m" horiz-adv-x="2048" d="M45 0v166l68 14q66 14 80 53q10 29 10 103v295q0 125 -51 151q-23 12 -62 17l-45 4v166l328 59h127v-76q160 94 364 95q164 0 277 -107q176 106 381 107q172 0 266 -107q57 -68 61 -176v-31v-397q0 -109 33 -133q16 -14 57 -23l68 -14v-166h-616v166l36 10q66 18 80 55 q10 29 11 105v373q0 94 -82 112l-31 4q-88 0 -199 -63l-14 -8v-418q0 -106 31 -133q16 -14 59 -27l37 -10v-166h-586v166l37 10q66 18 80 55q10 29 10 105v381q-10 117 -90 121q-108 0 -235 -84v-418q0 -106 30 -133q16 -14 60 -27l37 -10v-166h-617z" />
<glyph unicode="n" horiz-adv-x="1392" d="M45 0v166l59 14q66 16 80 53q10 27 11 103v295q0 119 -43 147l-41 17q-12 2 -29 4l-37 4v166l320 59h127v-88q193 106 372 107q156 0 244 -97q70 -74 76 -190v-39v-385q0 -106 28 -131q18 -14 62 -25l61 -14v-166h-610v166l37 10q66 18 80 55q10 29 10 105v358 q0 131 -92 131q-100 0 -234 -90v-399q0 -106 31 -133q16 -14 59 -27l37 -10v-166h-608z" />
<glyph unicode="o" horiz-adv-x="1269" d="M63 528q0 266 197 412q148 107 361 107q319 0 475 -207q102 -135 102 -332q0 -281 -207 -424q-145 -102 -360 -102q-319 0 -471 213q-96 137 -97 333zM436 504q0 -324 197 -324q176 0 190 273q2 23 2 50q0 335 -192 335q-197 0 -197 -334z" />
<glyph unicode="p" horiz-adv-x="1310" d="M45 -270l59 14q66 16 80 53q10 27 11 103v731q0 119 -43 147l-41 17q-12 2 -29 4l-37 4v166l320 59h127v-59q154 74 249 78h25q221 0 362 -170q123 -145 123 -347q0 -268 -168 -426q-128 -122 -308 -122h-3q-98 0 -223 49l-23 8v-139q0 -106 29 -131q18 -14 61 -25 l60 -14v-166h-631v166zM526 254q70 -63 158 -64q158 0 203 195q16 66 16 152q0 223 -117 290q-37 20 -81 21q-103 0 -179 -84v-510z" />
<glyph unicode="q" horiz-adv-x="1269" d="M63 514q0 276 181 424q129 109 313 109q162 -1 301 -89l39 70h236v-1128q0 -106 28 -131q16 -16 62 -25l73 -14v-166h-659v166l74 14q66 12 80 53q10 29 10 103v149q-77 -67 -237 -67h-5q-242 0 -383 182q-113 143 -113 350zM412 504q0 -123 41 -217q51 -106 168 -107 q88 1 180 60v532q-78 66 -170 66q-197 0 -217 -273q-2 -29 -2 -61z" />
<glyph unicode="r" horiz-adv-x="942" d="M45 0v166l59 14q66 16 80 53q10 27 11 103v295q0 119 -43 147l-41 17q-12 2 -29 4l-37 4v166l320 59h127v-100q145 104 221 114q20 4 49 5q106 0 160 -93q25 -43 24 -96q0 -96 -86 -139q-35 -16 -76 -17q-55 0 -104 33q-47 31 -72 31q-43 0 -82 -33v-397q0 -106 29 -131 q18 -14 61 -25l60 -14v-166h-631z" />
<glyph unicode="s" horiz-adv-x="1064" d="M45 338l158 33q76 -84 92 -99q92 -82 227 -82q123 0 166 56q12 14 12 30q0 61 -139 89l-41 6l-131 16q-287 39 -323 246q-4 27 -5 57q0 182 156 283q111 74 262 74q119 0 250 -62q6 -4 12 -6l25 49h129l39 -303l-168 -25q-115 158 -266 158q-106 0 -135 -55 q-6 -12 -7 -25q0 -57 127 -86q14 -2 33 -6l154 -29q164 -31 219 -73q16 -12 33 -29q84 -78 84 -205q0 -172 -156 -280q-125 -88 -297 -88q-131 0 -268 61l-25 -51h-135z" />
<glyph unicode="t" horiz-adv-x="942" d="M45 844v162q264 37 295 348h192v-326h281v-174h-281v-496q0 -119 46 -135q10 -4 28 -4q59 0 146 78q16 14 36 35l123 -146q-152 -184 -368 -202l-64 -2q-178 0 -246 120q-32 64 -32 215v9v518h-156z" />
<glyph unicode="u" d="M45 803v166l354 59h127v-676q0 -115 41 -137q20 -10 62 -10q92 0 223 78v348q0 119 -43 147l-41 17q-12 2 -29 4l-37 4v166l355 59h127v-692q0 -106 28 -131q18 -14 62 -25l63 -14v-166h-450v80q-166 -96 -307 -105l-52 -2q-147 0 -239 76q-76 68 -90 191q-4 45 -4 106 v285q0 119 -43 147l-41 17q-12 2 -29 4z" />
<glyph unicode="v" horiz-adv-x="1228" d="M-12 862v166h622v-166q-116 -10 -116 -68q0 -11 14 -46q8 -20 8 -23l133 -342l125 328q25 70 25 84q0 41 -101 65q-4 0 -8 2v166h524v-166q-115 -53 -149 -94q-29 -33 -82 -145l-293 -623h-207l-317 682q-55 117 -82 139q-20 18 -96 41z" />
<glyph unicode="w" horiz-adv-x="1638" d="M-12 862v166h551v-166l-27 -4q-80 -16 -84 -76q0 -12 8 -37l150 -383l116 371l-8 23q-27 72 -47 84l-39 16l-22 6v166h536v-166l-30 -4q-82 -14 -82 -70q0 -20 8 -43l123 -358l135 358q6 18 6 35q0 53 -88 76l-25 6v166h490v-166l-23 -4q-92 -16 -141 -125l-16 -41 l-265 -692h-247l-152 440l-153 -440h-238l-277 682q-39 111 -75 139l-47 27q-6 2 -15 6z" />
<glyph unicode="x" horiz-adv-x="1228" d="M16 0v166q68 20 115 51q18 16 150 156l147 159l-127 173q-68 102 -125 129q-41 18 -117 28v166h590v-166q-82 -6 -82 -39q0 -12 21 -39l65 -86l88 84q31 29 31 52t-67 28v166h491v-166q-115 -25 -195 -86q-35 -27 -92 -78q-29 -25 -30 -26l-123 -109l190 -246 q70 -90 148 -118q41 -16 116 -33v-166h-635v166q82 16 82 41q0 23 -30 61l-82 111l-99 -111q-33 -35 -32 -57q0 -35 104 -45v-166h-502z" />
<glyph unicode="y" horiz-adv-x="1269" d="M12 860v168h637v-168h-22q-111 0 -113 -51q0 -12 8 -41l152 -385l145 381q8 16 8 39q0 57 -94 57h-24v168h546v-168l-24 -4q-98 -25 -144 -84q-27 -35 -61 -108l-352 -760q-72 -154 -109 -201q-6 -6 -12 -14q-102 -127 -266 -140q-16 -2 -31 -2q-145 0 -201 99 q-20 37 -20 82q0 104 86 149q35 18 76 19q70 0 135 -60q16 -16 28 -16q29 0 95 106q27 43 45 84l-310 699q-45 104 -81 127q-20 12 -64 20z" />
<glyph unicode="z" horiz-adv-x="1146" d="M45 166l588 674q-33 2 -62 2q-150 0 -237 -88q-37 -37 -88 -121l-164 57l123 338h811l65 -151l-587 -682q29 -4 61 -5q213 0 326 127q43 47 82 119l157 -55l-129 -381h-895z" />
<glyph unicode="{" horiz-adv-x="655" d="M70 516v156q135 18 147 104q2 12 2 25v413q0 117 45 175q63 86 211 86q45 0 98 -5v-159q-135 -16 -151 -94q-2 -12 -2 -27v-367q0 -137 -78 -192l-57 -33q-6 -2 -13 -4q111 -43 136 -131q12 -39 12 -98v-367q0 -90 106 -113q20 -6 47 -8v-160q-66 -4 -106 -4 q-131 0 -197 78q-4 4 -6 8q-45 57 -45 174v414q0 96 -108 121q-18 6 -41 8z" />
<glyph unicode="|" horiz-adv-x="1228" d="M498 0v1479h243v-1479h-243z" />
<glyph unicode="}" horiz-adv-x="655" d="M72 -123q127 18 147 78q6 18 6 43v367q0 137 78 192q29 20 70 37q-111 43 -135 131q-12 39 -13 98v367q0 78 -78 104q-29 10 -75 17v159q51 4 98 5q147 0 211 -86q45 -57 45 -175v-413q0 -92 104 -121q18 -4 43 -8v-156q-129 -20 -145 -100q-2 -12 -2 -29v-414 q0 -213 -174 -249q-43 -10 -98 -11q-16 0 -82 4v160z" />
<glyph unicode="~" horiz-adv-x="1228" d="M104 657q106 195 215 232q39 14 84 14q61 0 152 -37l133 -57q88 -37 148 -37q82 0 170 135l131 -145q-84 -170 -217 -217q-37 -12 -74 -13q-59 0 -187 54l-112 45q-74 33 -133 33q-70 0 -127 -70q-23 -29 -56 -80z" />
<glyph unicode="&#xa1;" horiz-adv-x="737" d="M172 -176q0 66 49 272q53 240 72 471v11h168q25 -262 71 -469q49 -225 50 -306q0 -117 -99 -174q-49 -31 -108 -30q-135 0 -185 118q-18 47 -18 107zM186 858q0 104 90 162q46 29 101 29q106 0 160 -93q29 -47 28 -102q0 -100 -90 -156q-45 -29 -100 -28q-104 0 -160 90 q-29 45 -29 98z" />
<glyph unicode="&#xa2;" d="M272 717q0 238 199 344q72 37 164 53v266h121v-266q176 -2 262 -104q43 -49 43 -111q0 -76 -68 -108q-27 -14 -57 -15q-53 0 -94 37q-27 25 -39 66q-4 12 -10 36q-16 53 -76 54q-111 0 -154 -127q-18 -53 -18 -121q0 -158 114 -215q43 -23 97 -23q123 0 252 111l88 -72 q-84 -133 -256 -188q-41 -12 -84 -19v-282h-121v282q-236 37 -324 220q-39 82 -39 182z" />
<glyph unicode="&#xa3;" d="M20 197q0 135 134 188q59 25 137 25q88 0 174 -31q-35 182 -111 328h-268l45 129h174q-23 84 -22 155q0 195 153 307q166 123 393 123q236 0 363 -131q78 -80 78 -186q0 -119 -86 -170q-33 -18 -74 -19q-88 0 -131 70q-16 29 -16 62q0 16 14 51q20 49 20 67q0 53 -84 82 q-41 14 -92 15q-160 0 -219 -129q-23 -51 -22 -117q0 -72 43 -180h407l-43 -129h-313q96 -164 96 -312q0 -39 -10 -90q201 -98 297 -100q72 0 90 47q4 8 4 18q0 45 -61 60q-18 4 -37 4q-14 0 -52 -6h-14l-45 114q76 39 162 39q135 0 207 -108q39 -61 39 -137 q0 -137 -119 -213q-76 -49 -172 -50q-84 0 -170 43q-53 27 -189 105q-4 2 -26 14q-106 -131 -293 -158q-35 -4 -70 -4q-180 0 -258 113q-33 49 -33 111zM209 197q0 -45 65 -54q12 -2 25 -2q98 0 145 80q-70 29 -129 29q-102 0 -106 -53z" />
<glyph unicode="&#xa4;" d="M158 319l98 99q-82 152 -86 276q0 154 86 283l-98 98l137 139l98 -98q139 88 287 88q145 0 281 -88l98 98l135 -139l-98 -96q88 -127 88 -283t-86 -278l98 -99l-135 -139l-98 99q-137 -88 -285 -89q-154 0 -285 89l-98 -99zM422 696q0 -129 108 -204q66 -45 146 -46 q131 0 207 105q49 66 49 143q0 133 -109 207q-65 45 -147 45q-131 0 -207 -106q-47 -66 -47 -144z" />
<glyph unicode="&#xa5;" d="M-57 1227v168h751v-168q-152 -10 -159 -47q0 -10 32 -74l170 -309l156 266q57 94 57 119q0 29 -37 37l-106 8h-8v168h626v-168q-127 -4 -206 -80q-66 -61 -175 -238h265v-129h-351l-108 -176h459v-129h-471v-131q0 -102 24 -129q29 -35 115 -43l57 -4v-168h-725v168l58 4 q86 8 114 43q25 27 25 129v131h-443v129h422l-110 176h-312v129h228l-68 107q-92 141 -162 178q-45 25 -118 33z" />
<glyph unicode="&#xa6;" horiz-adv-x="1228" d="M498 0v600h243v-600h-243zM498 879v600h243v-600h-243z" />
<glyph unicode="&#xa7;" horiz-adv-x="1228" d="M74 -12q0 88 84 123q33 14 71 14q76 0 129 -49q31 -31 41 -84q2 -8 4 -21q6 -47 39 -67q57 -39 156 -39q117 0 195 51q63 37 63 119q0 76 -72 108q-37 18 -104 33l-176 41q-162 35 -254 92q-113 70 -129 193q-2 14 -2 30q0 111 57 189q29 41 88 80q-109 78 -125 184 q-4 27 -4 59q0 182 172 291q135 86 326 86q223 0 371 -114q104 -82 104 -181q0 -70 -74 -106q-35 -18 -73 -19q-94 0 -148 84q-16 27 -22 58q-12 57 -46 74l-22 10q-43 16 -98 16q-137 0 -181 -84l-12 -41v-12q0 -55 47 -80q33 -14 103 -37l231 -65q168 -47 238 -111 q94 -82 94 -223q0 -139 -111 -240q109 -113 113 -244q0 -147 -100 -260q-12 -14 -27 -26q-154 -129 -408 -142q-20 -2 -43 -2q-258 0 -403 127q-92 80 -92 185zM406 614q0 -55 57 -79q24 -11 65 -23l316 -84q29 45 28 86q0 72 -79 107q-20 6 -45 14l-281 82 q-61 -45 -61 -103z" />
<glyph unicode="&#xa8;" horiz-adv-x="1024" d="M139 1288q0 92 80 129q29 13 62 13q80 0 122 -74l17 -43q4 -16 4 -31q0 -80 -74 -119q-31 -18 -67 -18q-88 0 -127 78q-16 31 -17 65zM618 1288q0 92 80 129q29 13 62 13q80 0 123 -74l16 -43q4 -16 4 -31q0 -80 -74 -119q-31 -18 -67 -18q-88 0 -127 78q-16 31 -17 65z " />
<glyph unicode="&#xa9;" horiz-adv-x="1515" d="M47 678v39q0 283 197 491q197 207 475 224q20 2 43 2q293 0 500 -203q209 -203 219 -496v-26q0 -276 -197 -484q-195 -205 -471 -223q-25 -2 -49 -2q-287 0 -494 201q-207 197 -223 477zM152 717q0 -260 182 -443q180 -178 430 -178q252 0 432 183q180 180 180 430 q0 270 -186 454q-176 174 -428 174t-432 -182q-178 -182 -178 -438zM367 702q0 223 157 334q98 68 232 68q102 0 188 -41l8 27h80l94 -269l-86 -33q-61 104 -94 140q-78 80 -162 80q-125 0 -176 -148q-23 -68 -22 -158q0 -199 116 -270q45 -27 101 -26q146 0 252 184l94 -49 q-55 -147 -213 -209q-76 -31 -162 -31q-213 0 -328 154q-80 104 -79 247z" />
<glyph unicode="&#xaa;" horiz-adv-x="819" d="M55 586v116h742v-116h-742zM55 940q0 125 203 186q74 20 186 37v78q0 57 -71 57q-72 0 -76 -38q0 -76 -84 -89q-12 -2 -27 -2q-74 0 -98 54q-6 12 -6 26q0 96 129 146q74 27 168 26q168 0 244 -65q53 -47 53 -137v-252q0 -55 18 -56q8 1 35 21l82 -90q-84 -70 -176 -70 q-84 0 -154 59l-10 -4q-27 -14 -53 -26q-66 -29 -146 -29q-139 0 -194 90q-23 35 -23 78zM287 967q0 -41 39 -54q8 -2 16 -2q55 0 102 41v103q-158 -25 -157 -88z" />
<glyph unicode="&#xab;" horiz-adv-x="819" d="M70 518l213 361l112 -56l-112 -288l112 -326l-100 -64zM422 535l209 346l106 -58l-106 -288l106 -320l-106 -63z" />
<glyph unicode="&#xac;" horiz-adv-x="1228" d="M104 547v209h1033v-592h-211v383h-822z" />
<glyph unicode="&#xad;" horiz-adv-x="737" d="M41 430l96 221h559l-92 -221h-563z" />
<glyph unicode="&#xae;" horiz-adv-x="1515" d="M47 678v39q0 283 197 491q197 207 475 224q20 2 43 2q293 0 500 -203q209 -203 219 -496v-26q0 -276 -197 -484q-195 -205 -471 -223q-25 -2 -49 -2q-287 0 -494 201q-207 197 -223 477zM152 717q0 -260 182 -443q180 -178 430 -178q252 0 432 183q180 180 180 430 q0 270 -186 454q-176 174 -428 174t-432 -182q-178 -182 -178 -438zM362 365v94l23 2q61 6 72 41q6 18 6 55v395q0 70 -33 84q-14 8 -45 11l-23 2v94h445q158 0 235 -39q82 -39 101 -131q4 -18 4 -37q0 -133 -129 -191q-29 -12 -62 -20l144 -186q47 -63 96 -74q14 -4 39 -6 v-94h-266l-246 335h-59v-143q0 -74 34 -88q16 -6 43 -8l23 -2v-94h-402zM664 809h79q172 0 172 115q0 113 -155 112q-82 0 -92 -24q-4 -10 -4 -27v-176z" />
<glyph unicode="&#xaf;" horiz-adv-x="942" d="M139 1192v174h645v-174h-645z" />
<glyph unicode="&#xb0;" horiz-adv-x="819" d="M102 1094q0 156 123 247q85 64 191 64q154 0 241 -125q59 -82 60 -188q0 -160 -123 -252q-80 -61 -184 -62q-156 0 -246 125q-61 84 -62 191zM217 1092q0 -109 90 -166q47 -31 103 -31q109 0 163 94q27 47 27 103q0 111 -90 168q-45 28 -96 28q-113 0 -168 -94 q-29 -47 -29 -102z" />
<glyph unicode="&#xb1;" horiz-adv-x="1228" d="M104 0v240h1033v-240h-1033zM104 668v239h398v381h237v-381h398v-239h-398v-336h-237v336h-398z" />
<glyph unicode="&#xb2;" horiz-adv-x="811" d="M29 705q209 127 286 194q6 6 15 12q154 137 153 267q0 88 -88 108q-20 6 -45 6q-78 0 -112 -41q-10 -10 -11 -20q0 -6 11 -27q23 -33 22 -61q0 -63 -65 -90q-23 -10 -48 -11q-80 0 -108 72q-10 23 -10 49q0 131 141 203q92 45 213 45q227 0 319 -127q41 -57 41 -129 q0 -150 -231 -303q-78 -51 -193 -111h152q125 0 158 23q25 18 65 98l117 -28l-82 -275h-678z" />
<glyph unicode="&#xb3;" horiz-adv-x="811" d="M10 750q0 78 68 108q23 10 47 10q80 0 108 -59q8 -18 9 -39q0 -16 -11 -43q-2 -2 -2 -6q0 -31 82 -47q27 -4 56 -4q152 0 172 110q2 12 2 29q0 121 -150 137q-27 4 -61 4q-27 0 -54 -2v123h39q82 0 117 21q55 31 55 98q0 74 -79 90q-18 4 -39 4q-63 0 -101 -33 q-10 -8 -10 -16q0 -6 8 -21q14 -23 15 -47q0 -61 -68 -86q-25 -8 -51 -8q-82 0 -107 72q-8 20 -8 43q0 115 137 180q92 43 215 43q207 0 303 -111q45 -53 46 -118q0 -90 -91 -148q-18 -10 -36 -18q160 -45 178 -170q2 -14 2 -29q0 -141 -160 -219q-94 -47 -221 -53 q-23 -2 -47 -2q-215 0 -316 100q-47 47 -47 107z" />
<glyph unicode="&#xb4;" horiz-adv-x="819" d="M139 1235l215 192q96 84 172 84q82 0 125 -75q18 -35 19 -74q0 -117 -148 -154l-16 -4l-326 -69z" />
<glyph unicode="&#xb5;" d="M45 803v166l354 59h127v-676q0 -115 41 -137q20 -10 62 -10q92 0 223 78v348q0 119 -43 147l-41 17q-12 2 -29 4l-37 4v166l355 59h127v-692q0 -106 28 -131q18 -14 62 -25l63 -14v-166h-450v80q-168 -98 -316 -107h-36q-142 1 -222 101v-25q0 -76 31 -147q2 -4 4 -11 q57 -137 58 -186q0 -109 -91 -143q-27 -10 -57 -11q-104 0 -139 87q-12 29 -13 61q0 47 35 139q6 16 19 47q35 92 35 156v592q0 119 -45 147q-23 14 -68 19z" />
<glyph unicode="&#xb6;" horiz-adv-x="1638" d="M29 985q0 205 151 318q49 37 111 57q98 35 280 35h979v-174l-32 -4q-98 -12 -123 -52l-11 -28q-4 -25 -6 -164v-760q0 -162 31 -199q25 -29 104 -37l37 -4v-174h-1122v174l33 4q102 12 123 58q6 8 8 20q8 27 8 158v348q-231 12 -354 66q-162 72 -205 252q-12 51 -12 106z M903 -27h174v1248h-174v-1248z" />
<glyph unicode="&#xb7;" horiz-adv-x="696" d="M156 547q0 100 88 155q45 27 98 27q104 0 158 -88q27 -45 26 -96q0 -102 -88 -158q-45 -29 -98 -29q-102 0 -158 91q-27 45 -26 98z" />
<glyph unicode="&#xb8;" horiz-adv-x="737" d="M139 -313q0 59 56 67q6 2 14 2q29 0 63 -24q43 -35 76 -35q51 0 62 49q2 8 2 16q0 80 -125 84q-29 0 -68 -4l19 158h106v-90q45 4 74 4q104 0 147 -84q16 -33 17 -70q0 -117 -113 -170q-57 -27 -127 -26q-135 0 -186 71q-16 25 -17 52z" />
<glyph unicode="&#xb9;" horiz-adv-x="811" d="M133 559v113h45q66 0 109 24q14 12 14 62v405q0 53 -18 64q-41 18 -119 18h-25v109q16 -2 31 -2q117 0 274 39l23 4h70v-637q0 -51 22 -66q25 -16 107 -20h41v-113h-574z" />
<glyph unicode="&#xba;" horiz-adv-x="819" d="M35 1100q0 221 198 293q79 28 181 28q233 0 327 -157l27 -60q16 -51 16 -112q0 -197 -170 -279q-86 -41 -202 -41q-256 0 -342 172q-35 68 -35 156zM39 586v116h741v-116h-741zM287 1087q0 -188 122.5 -188t122.5 193q-11 194 -120 202q-98 0 -119 -116q-6 -37 -6 -91z " />
<glyph unicode="&#xbb;" horiz-adv-x="819" d="M70 215l106 320l-106 288l106 58l209 -346l-209 -383zM412 209l112 326l-112 288l112 56l213 -361l-225 -373z" />
<glyph unicode="&#xbc;" horiz-adv-x="2027" d="M133 559v113h45q66 0 109 24q14 12 14 62v405q0 53 -18 64q-41 18 -119 18h-25v109q14 -2 29 -2q119 0 276 39l23 4h70v-637q0 -51 22 -66q25 -16 107 -20h41v-113h-574zM537 0l870 1395h166l-877 -1395h-159zM1161 299q264 303 420 537h203v-500h196l-61 -131h-135v-37 q0 -51 78 -53l41 -2v-113h-441v113l37 2q74 4 74 53v37h-363zM1360 336h213v280q-37 -57 -213 -280z" />
<glyph unicode="&#xbd;" horiz-adv-x="2027" d="M133 559v113h45q66 0 109 24q14 12 14 62v405q0 53 -18 64q-41 18 -119 18h-25v109q16 -2 29 -2q109 0 276 39l23 4h70v-637q0 -51 22 -66q25 -16 107 -20h41v-113h-574zM483 0l871 1395h166l-877 -1395h-160zM1225 145q209 127 286 195q6 6 15 12q154 137 153 266 q0 88 -88 109q-20 6 -45 6q-78 0 -112 -41q-10 -10 -11 -20q0 -6 11 -27q23 -35 22 -61q0 -63 -65 -90q-23 -10 -48 -11q-80 0 -108 72q-10 23 -10 49q0 131 141 203q92 45 213 45q227 0 319 -127q41 -57 41 -129q0 -150 -231 -303q-78 -51 -192 -111h151q125 0 158 23 q25 18 65 98l117 -29l-82 -274h-678z" />
<glyph unicode="&#xbe;" horiz-adv-x="2027" d="M31 750q0 78 67 108q23 10 47 10q80 0 109 -59q8 -18 8 -39q0 -16 -10 -43q-2 -2 -2 -6q0 -31 82 -47q27 -4 55 -4q152 0 172 110q2 12 2 29q0 121 -149 137q-27 4 -62 4q-26 0 -53 -2v123h39q82 0 117 21q55 31 55 98q0 74 -80 90q-18 4 -39 4q-63 0 -100 -33 q-10 -8 -10 -16q0 -6 8 -21q14 -23 14 -47q0 -61 -68 -86q-25 -8 -51 -8q-82 0 -106 72q-8 20 -8 43q0 115 137 180q92 43 215 43q207 0 303 -111q45 -53 45 -118q0 -90 -90 -148q-18 -10 -37 -18q160 -45 178 -170q2 -14 2 -29q0 -141 -159 -219q-94 -47 -222 -53 q-23 -2 -47 -2q-215 0 -315 100q-47 47 -47 107zM557 0l870 1395h166l-876 -1395h-160zM1161 299q264 303 420 537h203v-500h196l-61 -131h-135v-37q0 -51 78 -53l41 -2v-113h-441v113l37 2q74 4 74 53v37h-363zM1360 336h213v280q-37 -57 -213 -280z" />
<glyph unicode="&#xbf;" d="M127 -14q0 258 274 376q125 55 152 101q16 33 16 96v16h205q4 -25 4 -67q0 -129 -49 -197q-35 -47 -129 -121q-100 -82 -100 -198q0 -145 121 -197q45 -18 100 -18q125 0 186 61q23 23 23 47q0 14 -17 54q-14 39 -14 73q0 98 90 140q37 16 80 16q135 0 170 -121 q8 -31 8 -70q0 -172 -180 -282q-156 -96 -379 -96q-369 0 -504 190q-57 84 -57 197zM471 860q0 104 90 162q46 29 101 29q106 0 159 -93q29 -47 29 -102q0 -100 -88 -156q-47 -29 -100 -28q-109 0 -164 90q-27 45 -27 98z" />
<glyph unicode="&#xc0;" horiz-adv-x="1474" d="M-70 0v168l33 4q102 16 158 94q35 49 82 156l405 973h318l401 -1000q57 -152 98 -184q29 -25 105 -39l33 -4v-168h-748v168l51 4q121 8 121 61q0 31 -22 89l-62 174h-440l-66 -177q-18 -41 -18 -73q0 -49 115 -68q16 -4 36 -6l33 -4v-168h-633zM389 1714q0 84 74 129 q33 20 69 21q78 0 173 -82l215 -193l-41 -102l-326 72q-162 35 -164 155zM528 670h308l-152 399z" />
<glyph unicode="&#xc1;" horiz-adv-x="1474" d="M-70 0v168l33 4q102 16 158 94q35 49 82 156l405 973h318l401 -1000q57 -152 98 -184q29 -25 105 -39l33 -4v-168h-748v168l51 4q121 8 121 61q0 31 -22 89l-62 174h-440l-66 -177q-18 -41 -18 -73q0 -49 115 -68q16 -4 36 -6l33 -4v-168h-633zM528 670h308l-152 399z M625 1589l215 193q94 82 172 82q82 0 125 -76q18 -35 18 -74q0 -117 -164 -155l-325 -72z" />
<glyph unicode="&#xc2;" horiz-adv-x="1474" d="M-70 0v168l33 4q102 16 158 94q35 49 82 156l405 973h318l401 -1000q57 -152 98 -184q29 -25 105 -39l33 -4v-168h-748v168l51 4q121 8 121 61q0 31 -22 89l-62 174h-440l-66 -177q-18 -41 -18 -73q0 -49 115 -68q16 -4 36 -6l33 -4v-168h-633zM389 1626l373 225 l368 -225l-77 -135l-295 108l-291 -108zM528 670h308l-152 399z" />
<glyph unicode="&#xc3;" horiz-adv-x="1474" d="M-70 0v168l33 4q102 16 158 94q35 49 82 156l405 973h318l401 -1000q57 -152 98 -184q29 -25 105 -39l33 -4v-168h-748v168l51 4q121 8 121 61q0 31 -22 89l-62 174h-440l-66 -177q-18 -41 -18 -73q0 -49 115 -68q16 -4 36 -6l33 -4v-168h-633zM414 1608q49 145 176 188 q39 14 82 14q63 0 141 -28q94 -33 135 -33q51 0 78 39q2 4 6 10l103 -51q-51 -174 -177 -207q-33 -8 -75 -8q-61 0 -162 33q-16 6 -45 16q-47 14 -78 14q-43 0 -78 -49zM528 670h308l-152 399z" />
<glyph unicode="&#xc4;" horiz-adv-x="1474" d="M-70 0v168l33 4q102 16 158 94q35 49 82 156l405 973h318l401 -1000q57 -152 98 -184q29 -25 105 -39l33 -4v-168h-748v168l51 4q121 8 121 61q0 31 -22 89l-62 174h-440l-66 -177q-18 -41 -18 -73q0 -49 115 -68q16 -4 36 -6l33 -4v-168h-633zM379 1655q0 92 80 129 q28 12 61 12q80 0 123 -74l16 -43q4 -16 5 -30q0 -80 -74 -119q-31 -18 -68 -19q-88 0 -127 78q-16 31 -16 66zM528 670h308l-152 399zM858 1655q0 92 80 129q28 12 61 12q80 0 123 -74l17 -43q4 -16 4 -30q0 -80 -74 -119q-31 -18 -68 -19q-88 0 -127 78q-16 31 -16 66z " />
<glyph unicode="&#xc5;" horiz-adv-x="1474" d="M-70 0v168l33 4q102 16 158 94q35 49 82 156l405 973h318l401 -1000q57 -152 98 -184q29 -25 105 -39l33 -4v-168h-748v168l51 4q121 8 121 61q0 31 -22 89l-62 174h-440l-66 -177q-18 -41 -18 -73q0 -49 115 -68q16 -4 36 -6l33 -4v-168h-633zM528 670h308l-152 399z M549 1683q0 111 96 175q52 34 115 34q119 0 180 -98l23 -49q10 -33 10 -66q0 -109 -96 -170q-53 -35 -115 -34q-115 0 -178 94q-35 53 -35 114zM688 1686q0 -55 49 -74q10 -4 23 -4q51 0 69 51q4 12 5 24q0 53 -50 72q-12 4 -24 4q-49 0 -68 -47q-4 -12 -4 -26z" />
<glyph unicode="&#xc6;" horiz-adv-x="2334" d="M-70 0v168l31 6q160 41 254 131q39 35 82 90l772 1000h1020l203 -396l-144 -73q-145 197 -299 256q-109 41 -274 41q-104 0 -131 -45q-16 -33 -17 -113v-219h25h39l74 4q92 18 116 119q12 47 15 123h162v-697h-162q-6 178 -82 223l-45 17q-33 8 -76 8q-33 0 -66 -2v-311 q0 -98 52 -121q35 -16 125 -16q236 0 403 141q94 80 203 227l143 -53l-225 -508h-1221v168l41 4q100 10 123 57q16 33 16 115v164h-448l-152 -201q-33 -45 -32 -67q0 -53 102 -68q25 -4 51 -4h31v-168h-709zM764 682h323v410z" />
<glyph unicode="&#xc7;" horiz-adv-x="1515" d="M72 698q0 307 186 514q37 41 82 76q176 133 434 133q186 0 340 -73l16 47h142l172 -484l-158 -59q-109 188 -160 246q-6 4 -10 10q-139 145 -291 145q-203 0 -299 -213q-61 -139 -61 -340q0 -307 160 -448q102 -90 233 -90q154 0 291 114q8 6 14 13q76 74 152 205 l168 -86q-88 -233 -324 -353q-162 -82 -348 -82h-23v-63q47 4 74 4q104 0 148 -84q16 -33 16 -70q0 -117 -113 -170q-57 -27 -127 -26q-135 0 -186 71q-16 25 -16 52q0 59 55 67q6 2 14 2q29 0 64 -24q43 -35 76 -35q51 0 61 49q2 8 2 16q0 80 -125 84q-27 0 -67 -4l16 142 q-377 70 -526 358q-82 156 -82 356z" />
<glyph unicode="&#xc8;" horiz-adv-x="1474" d="M41 0v168l41 4q100 10 123 57q16 33 16 115v707q0 117 -43 145q-29 18 -96 27l-41 4v168h1182l202 -422l-139 -70q-203 293 -467 307h-22q-168 0 -199 -41q-18 -23 -18 -120v-29v-174h59q121 0 154 24q53 41 55 199h160v-637h-160q-18 143 -70 191q-37 35 -141 34h-57 v-241q0 -158 10 -183q20 -49 160 -49q274 0 483 232q53 59 106 135l144 -68l-226 -483h-1216zM375 1714q0 84 74 129q33 20 69 21q78 0 172 -82l215 -193l-41 -102l-325 72q-162 35 -164 155z" />
<glyph unicode="&#xc9;" horiz-adv-x="1474" d="M41 0v168l41 4q100 10 123 57q16 33 16 115v707q0 117 -43 145q-29 18 -96 27l-41 4v168h1182l202 -422l-139 -70q-203 293 -467 307h-22q-168 0 -199 -41q-18 -23 -18 -120v-29v-174h59q121 0 154 24q53 41 55 199h160v-637h-160q-18 143 -70 191q-37 35 -141 34h-57 v-241q0 -158 10 -183q20 -49 160 -49q274 0 483 232q53 59 106 135l144 -68l-226 -483h-1216zM524 1589l215 193q94 82 172 82q82 0 125 -76q18 -35 19 -74q0 -117 -164 -155l-326 -72z" />
<glyph unicode="&#xca;" horiz-adv-x="1474" d="M41 0v168l41 4q100 10 123 57q16 33 16 115v707q0 117 -43 145q-29 18 -96 27l-41 4v168h1182l202 -422l-139 -70q-203 293 -467 307h-22q-168 0 -199 -41q-18 -23 -18 -120v-29v-174h59q121 0 154 24q53 41 55 199h160v-637h-160q-18 143 -70 191q-37 35 -141 34h-57 v-241q0 -158 10 -183q20 -49 160 -49q274 0 483 232q53 59 106 135l144 -68l-226 -483h-1216zM324 1626l372 225l369 -225l-78 -135l-295 108l-291 -108z" />
<glyph unicode="&#xcb;" horiz-adv-x="1474" d="M41 0v168l41 4q100 10 123 57q16 33 16 115v707q0 117 -43 145q-29 18 -96 27l-41 4v168h1182l202 -422l-139 -70q-203 293 -467 307h-22q-168 0 -199 -41q-18 -23 -18 -120v-29v-174h59q121 0 154 24q53 41 55 199h160v-637h-160q-18 143 -70 191q-37 35 -141 34h-57 v-241q0 -158 10 -183q20 -49 160 -49q274 0 483 232q53 59 106 135l144 -68l-226 -483h-1216zM313 1655q0 92 80 129q29 12 62 12q80 0 123 -74l16 -43q4 -16 4 -30q0 -80 -74 -119q-31 -18 -67 -19q-88 0 -127 78q-16 31 -17 66zM793 1655q0 92 79 129q29 12 62 12 q80 0 123 -74l16 -43q4 -16 4 -30q0 -80 -73 -119q-31 -18 -68 -19q-88 0 -127 78q-16 31 -16 66z" />
<glyph unicode="&#xcc;" horiz-adv-x="819" d="M41 0v168l49 4q86 6 115 43q24 27 24 129v707q0 102 -24 129q-29 37 -115 43l-49 4v168h735v-168l-49 -4q-86 -6 -115 -43q-25 -27 -24 -129v-707q0 -102 24 -129q29 -37 115 -43l49 -4v-168h-735zM41 1714q0 84 74 129q33 20 69 21q78 0 172 -82l215 -193l-41 -102 l-325 72q-162 35 -164 155z" />
<glyph unicode="&#xcd;" horiz-adv-x="819" d="M41 0v168l49 4q86 6 115 43q24 27 24 129v707q0 102 -24 129q-29 37 -115 43l-49 4v168h735v-168l-49 -4q-86 -6 -115 -43q-25 -27 -24 -129v-707q0 -102 24 -129q29 -37 115 -43l49 -4v-168h-735zM139 1589l215 193q94 82 172 82q82 0 125 -76q18 -35 19 -74 q0 -117 -164 -155l-326 -72z" />
<glyph unicode="&#xce;" horiz-adv-x="819" d="M37 1626l373 225l368 -225l-78 -135l-294 108l-291 -108zM41 0v168l49 4q86 6 115 43q24 27 24 129v707q0 102 -24 129q-29 37 -115 43l-49 4v168h735v-168l-49 -4q-86 -6 -115 -43q-25 -27 -24 -129v-707q0 -102 24 -129q29 -37 115 -43l49 -4v-168h-735z" />
<glyph unicode="&#xcf;" horiz-adv-x="819" d="M37 1655q0 92 80 129q28 12 61 12q80 0 123 -74l16 -43q4 -16 5 -30q0 -80 -74 -119q-31 -18 -68 -19q-88 0 -127 78q-16 31 -16 66zM41 0v168l49 4q86 6 115 43q24 27 24 129v707q0 102 -24 129q-29 37 -115 43l-49 4v168h735v-168l-49 -4q-86 -6 -115 -43 q-25 -27 -24 -129v-707q0 -102 24 -129q29 -37 115 -43l49 -4v-168h-735zM516 1655q0 92 80 129q28 12 61 12q80 0 123 -74l17 -43q4 -16 4 -30q0 -80 -74 -119q-31 -18 -68 -19q-88 0 -127 78q-16 31 -16 66z" />
<glyph unicode="&#xd0;" horiz-adv-x="1597" d="M41 0v168l41 4q100 10 123 57q16 33 16 115v313h-180v179h180v211q0 121 -45 149q-29 18 -94 25l-41 4v170h651q315 0 447 -56q78 -33 164 -106q229 -201 229 -543q0 -283 -162 -469q-133 -156 -338 -196q-82 -18 -192 -23q-47 -2 -101 -2h-698zM580 332q0 -102 10 -115 q2 -2 8 -6q37 -27 119 -27q231 0 346 197q76 133 76 324q0 309 -187 438q-96 66 -227 65q-113 0 -135 -45l-10 -41v-22v-264h313v-179h-313v-325z" />
<glyph unicode="&#xd1;" horiz-adv-x="1515" d="M41 0v168l41 4q100 10 123 57q16 33 16 115v707q0 117 -43 145q-29 18 -96 27l-41 4v168h604l467 -805v461q0 117 -43 145q-29 18 -96 27l-41 4v168h551v-168l-41 -4q-100 -10 -123 -58l-12 -47l-4 -67v-1051h-254l-637 1077v-733q0 -117 43 -145q29 -18 96 -27l41 -4 v-168h-551zM408 1608q49 145 176 188q39 14 82 14q63 0 141 -28q94 -33 135 -33q51 0 78 39q2 4 6 10l102 -51q-51 -174 -176 -207q-33 -8 -75 -8q-61 0 -162 33q-16 6 -45 16q-47 14 -78 14q-43 0 -78 -49z" />
<glyph unicode="&#xd2;" horiz-adv-x="1638" d="M72 684q0 326 221 535q212 202 536 202q299 0 510 -176q236 -199 236 -536q0 -309 -217 -519q-227 -213 -555 -217q-260 0 -459 148q-272 205 -272 563zM465 692q0 -227 92 -370q4 -6 8 -13q78 -109 217 -125q18 -2 37 -2q190 0 291 193q72 135 72 330q0 346 -183 460 q-74 47 -168 47q-188 0 -290 -184q-76 -137 -76 -336zM487 1714q0 84 74 129q33 20 70 21q78 0 172 -82l215 -193l-41 -102l-326 72q-162 35 -164 155z" />
<glyph unicode="&#xd3;" horiz-adv-x="1638" d="M72 684q0 326 221 535q212 202 536 202q299 0 510 -176q236 -199 236 -536q0 -309 -217 -519q-227 -213 -555 -217q-260 0 -459 148q-272 205 -272 563zM465 692q0 -227 92 -370q4 -6 8 -13q78 -109 217 -125q18 -2 37 -2q190 0 291 193q72 135 72 330q0 346 -183 460 q-74 47 -168 47q-188 0 -290 -184q-76 -137 -76 -336zM653 1589l215 193q94 82 172 82q82 0 125 -76q18 -35 19 -74q0 -117 -164 -155l-326 -72z" />
<glyph unicode="&#xd4;" horiz-adv-x="1638" d="M72 684q0 326 221 535q212 202 536 202q299 0 510 -176q236 -199 236 -536q0 -309 -217 -519q-227 -213 -555 -217q-260 0 -459 148q-272 205 -272 563zM453 1626l372 225l369 -225l-78 -135l-295 108l-291 -108zM465 692q0 -227 92 -370q4 -6 8 -13q78 -109 217 -125 q18 -2 37 -2q190 0 291 193q72 135 72 330q0 346 -183 460q-74 47 -168 47q-188 0 -290 -184q-76 -137 -76 -336z" />
<glyph unicode="&#xd5;" horiz-adv-x="1638" d="M72 684q0 326 221 535q212 202 536 202q299 0 510 -176q236 -199 236 -536q0 -309 -217 -519q-227 -213 -555 -217q-260 0 -459 148q-272 205 -272 563zM465 692q0 -227 92 -370q4 -6 8 -13q78 -109 217 -125q18 -2 37 -2q190 0 291 193q72 135 72 330q0 346 -183 460 q-74 47 -168 47q-188 0 -290 -184q-76 -137 -76 -336zM475 1608q49 145 176 188q39 14 82 14q63 0 141 -28q94 -33 136 -33q51 0 77 39q3 4 7 10l102 -51q-51 -174 -176 -207q-33 -8 -76 -8q-61 0 -162 33q-16 6 -45 16q-47 14 -78 14q-43 0 -77 -49z" />
<glyph unicode="&#xd6;" horiz-adv-x="1638" d="M72 684q0 326 221 535q212 202 536 202q299 0 510 -176q236 -199 236 -536q0 -309 -217 -519q-227 -213 -555 -217q-260 0 -459 148q-272 205 -272 563zM442 1655q0 92 80 129q29 12 62 12q80 0 123 -74l16 -43q4 -16 4 -30q0 -80 -74 -119q-31 -18 -67 -19 q-88 0 -127 78q-16 31 -17 66zM465 692q0 -227 92 -370q4 -6 8 -13q78 -109 217 -125q18 -2 37 -2q190 0 291 193q72 135 72 330q0 346 -183 460q-74 47 -168 47q-188 0 -290 -184q-76 -137 -76 -336zM922 1655q0 92 79 129q29 12 62 12q80 0 123 -74l16 -43q4 -16 4 -30 q0 -80 -73 -119q-31 -18 -68 -19q-88 0 -127 78q-16 31 -16 66z" />
<glyph unicode="&#xd7;" horiz-adv-x="1228" d="M98 375l346 346l-346 346l170 170l346 -346l347 346l169 -170l-346 -346l346 -346l-169 -170l-347 346l-346 -346z" />
<glyph unicode="&#xd8;" horiz-adv-x="1638" d="M72 698q0 311 213 519q209 205 524 204q139 0 258 -32l107 206h172l-136 -256q172 -104 248 -217l29 -45q92 -162 92 -366q0 -324 -213 -535q-197 -195 -489 -203h-25q-174 0 -303 41l-115 -239h-178l150 299q-197 106 -287 350q-47 131 -47 274zM444 690q1 -221 99 -364 l424 862q-70 35 -136 35q-129 0 -225 -82q-131 -121 -157 -363q-4 -43 -5 -88zM655 215q78 -43 172 -43q211 0 314 207q66 135 65 332q1 250 -114 387z" />
<glyph unicode="&#xd9;" horiz-adv-x="1515" d="M31 1227v168h719v-168l-41 -4q-100 -10 -123 -58l-13 -47l-4 -67v-541q0 -154 47 -221q6 -10 15 -19q68 -82 196 -82q117 0 191 58q76 61 84 211v47v547q0 117 -43 145q-29 18 -96 27l-41 4v168h561v-168l-41 -4q-100 -10 -123 -58l-12 -47l-4 -67v-537q0 -242 -62 -338 q-25 -39 -63 -74q-127 -113 -367 -127q-25 -2 -51 -2q-244 0 -402 115l-41 33q-86 84 -100 219q-6 53 -6 131v580q0 117 -43 145q-29 18 -96 27zM436 1714q0 84 74 129q33 20 70 21q78 0 172 -82l215 -193l-41 -102l-326 72q-162 35 -164 155z" />
<glyph unicode="&#xda;" horiz-adv-x="1515" d="M31 1227v168h719v-168l-41 -4q-100 -10 -123 -58l-13 -47l-4 -67v-541q0 -154 47 -221q6 -10 15 -19q68 -82 196 -82q117 0 191 58q76 61 84 211v47v547q0 117 -43 145q-29 18 -96 27l-41 4v168h561v-168l-41 -4q-100 -10 -123 -58l-12 -47l-4 -67v-537q0 -242 -62 -338 q-25 -39 -63 -74q-127 -113 -367 -127q-25 -2 -51 -2q-244 0 -402 115l-41 33q-86 84 -100 219q-6 53 -6 131v580q0 117 -43 145q-29 18 -96 27zM608 1589l215 193q94 82 172 82q82 0 125 -76q18 -35 19 -74q0 -117 -164 -155l-326 -72z" />
<glyph unicode="&#xdb;" horiz-adv-x="1515" d="M31 1227v168h719v-168l-41 -4q-100 -10 -123 -58l-13 -47l-4 -67v-541q0 -154 47 -221q6 -10 15 -19q68 -82 196 -82q117 0 191 58q76 61 84 211v47v547q0 117 -43 145q-29 18 -96 27l-41 4v168h561v-168l-41 -4q-100 -10 -123 -58l-12 -47l-4 -67v-537q0 -242 -62 -338 q-25 -39 -63 -74q-127 -113 -367 -127q-25 -2 -51 -2q-244 0 -402 115l-41 33q-86 84 -100 219q-6 53 -6 131v580q0 117 -43 145q-29 18 -96 27zM414 1626l372 225l369 -225l-78 -135l-295 108l-290 -108z" />
<glyph unicode="&#xdc;" horiz-adv-x="1515" d="M31 1227v168h719v-168l-41 -4q-100 -10 -123 -58l-13 -47l-4 -67v-541q0 -154 47 -221q6 -10 15 -19q68 -82 196 -82q117 0 191 58q76 61 84 211v47v547q0 117 -43 145q-29 18 -96 27l-41 4v168h561v-168l-41 -4q-100 -10 -123 -58l-12 -47l-4 -67v-537q0 -242 -62 -338 q-25 -39 -63 -74q-127 -113 -367 -127q-25 -2 -51 -2q-244 0 -402 115l-41 33q-86 84 -100 219q-6 53 -6 131v580q0 117 -43 145q-29 18 -96 27zM401 1655q0 92 80 129q29 12 62 12q80 0 123 -74l16 -43q4 -16 4 -30q0 -80 -74 -119q-31 -18 -67 -19q-88 0 -127 78 q-16 31 -17 66zM881 1655q0 92 80 129q28 12 61 12q80 0 123 -74l16 -43q4 -16 4 -30q0 -80 -73 -119q-31 -18 -68 -19q-88 0 -127 78q-16 31 -16 66z" />
<glyph unicode="&#xdd;" horiz-adv-x="1433" d="M-41 1227v168h778v-168q-152 -2 -159 -49q0 -12 32 -74l168 -305l160 264q57 96 57 119q0 33 -69 41q-31 4 -82 4v168h626v-168q-141 -8 -231 -103l-55 -67q-18 -27 -39 -58l-264 -409v-246q0 -102 24 -129q29 -35 115 -43l57 -4v-168h-751v168l57 4q86 8 115 43 q25 27 24 129v221l-286 449q-90 147 -170 186q-43 20 -107 27zM586 1589l215 193q94 82 172 82q82 0 125 -76q18 -35 18 -74q0 -117 -164 -155l-325 -72z" />
<glyph unicode="&#xde;" d="M41 0v168l41 4q100 10 123 57q16 33 16 115v709q0 117 -43 145q-29 18 -96 27l-41 4v166h729v-166l-49 -4q-109 -10 -127 -68q-6 -18 -6 -47h188q264 0 383 -68q14 -8 29 -18q160 -111 160 -322q0 -401 -574 -401h-192q0 -84 51 -108q29 -12 86 -21l41 -4v-168h-719z M580 483h79q295 0 295 219q0 217 -295 218h-79v-437z" />
<glyph unicode="&#xdf;" d="M-125 -160l37 137l41 -4l39 -2q84 0 141 54q57 59 62 206v43v574h-154v180h154q29 143 100 225q106 121 342 150q53 6 106 6q231 0 349 -117l32 -45q29 -47 29 -100q0 -102 -111 -186q-72 -55 -71 -95q0 -31 59 -53q289 -113 289 -369q0 -182 -158 -321 q-160 -141 -368 -141q-90 0 -209 16l41 156q109 6 170 32q123 57 153 172q6 25 6 52q0 92 -73 165q-16 18 -174 130q-84 57 -84 135q0 59 71 114q25 20 66 47q106 82 110 150q0 76 -71 102l-45 9h-4q-92 0 -158 -78l-17 -23q-49 -76 -49 -256v-530q0 -264 -84 -377 q-14 -20 -30 -37q-109 -117 -287 -143q-37 -6 -72 -6q-63 0 -178 28z" />
<glyph unicode="&#xe0;" horiz-adv-x="1187" d="M57 262q0 233 308 326q133 41 299 55v105q0 111 -129 110q-72 0 -113 -37q-18 -14 -19 -53q0 -68 -28 -102q-45 -55 -129 -56q-92 0 -135 82q-16 33 -17 72q0 141 166 223q121 59 289 60q248 0 369 -111q78 -76 77 -227v-404q2 -78 9 -92q8 -23 34 -23q14 0 37 23 q7 4 15 12l114 -139q-131 -104 -260 -104q-137 0 -221 88q-8 8 -14 16q-154 -104 -326 -104q-197 0 -283 131q-43 66 -43 149zM229 1362q0 84 74 129q33 20 70 20q76 0 172 -84l215 -192l-41 -100l-326 69q-164 37 -164 158zM406 305q0 -80 67 -98q14 -4 29 -4q84 -1 162 71 v205q-256 -47 -258 -174z" />
<glyph unicode="&#xe1;" horiz-adv-x="1187" d="M57 262q0 233 308 326q133 41 299 55v105q0 111 -129 110q-72 0 -113 -37q-18 -14 -19 -53q0 -68 -28 -102q-45 -55 -129 -56q-92 0 -135 82q-16 33 -17 72q0 141 166 223q121 59 289 60q248 0 369 -111q78 -76 77 -227v-404q2 -78 9 -92q8 -23 34 -23q14 0 37 23 q7 4 15 12l114 -139q-131 -104 -260 -104q-137 0 -221 88q-8 8 -14 16q-154 -104 -326 -104q-197 0 -283 131q-43 66 -43 149zM379 1235l215 192q96 84 172 84q82 0 125 -75q18 -35 18 -74q0 -117 -147 -154q-8 -2 -17 -4l-325 -69zM406 305q0 -80 67 -98q14 -4 29 -4 q84 -1 162 71v205q-256 -47 -258 -174z" />
<glyph unicode="&#xe2;" horiz-adv-x="1187" d="M57 262q0 233 308 326q133 41 299 55v105q0 111 -129 110q-72 0 -113 -37q-18 -14 -19 -53q0 -68 -28 -102q-45 -55 -129 -56q-92 0 -135 82q-16 33 -17 72q0 141 166 223q121 59 289 60q248 0 369 -111q78 -76 77 -227v-404q2 -78 9 -92q8 -23 34 -23q14 0 37 23 q7 4 15 12l114 -139q-131 -104 -260 -104q-137 0 -221 88q-8 8 -14 16q-154 -104 -326 -104q-197 0 -283 131q-43 66 -43 149zM182 1274l373 223l369 -223l-78 -137l-295 110l-291 -110zM406 305q0 -80 67 -98q14 -4 29 -4q84 -1 162 71v205q-256 -47 -258 -174z" />
<glyph unicode="&#xe3;" horiz-adv-x="1187" d="M57 262q0 233 308 326q133 41 299 55v105q0 111 -129 110q-72 0 -113 -37q-18 -14 -19 -53q0 -68 -28 -102q-45 -55 -129 -56q-92 0 -135 82q-16 33 -17 72q0 141 166 223q121 59 289 60q248 0 369 -111q78 -76 77 -227v-404q2 -78 9 -92q8 -23 34 -23q14 0 37 23 q7 4 15 12l114 -139q-131 -104 -260 -104q-137 0 -221 88q-8 8 -14 16q-154 -104 -326 -104q-197 0 -283 131q-43 66 -43 149zM203 1231q49 143 176 186q41 14 82 15q61 0 141 -27q96 -33 135 -33q51 0 78 39q2 4 6 10l103 -51q-51 -180 -183 -209q-33 -6 -69 -6 q-61 0 -164 33q-16 6 -43 14q-47 14 -78 15q-43 0 -78 -50zM406 305q0 -80 67 -98q14 -4 29 -4q84 -1 162 71v205q-256 -47 -258 -174z" />
<glyph unicode="&#xe4;" horiz-adv-x="1187" d="M57 262q0 233 308 326q133 41 299 55v105q0 111 -129 110q-72 0 -113 -37q-18 -14 -19 -53q0 -68 -28 -102q-45 -55 -129 -56q-92 0 -135 82q-16 33 -17 72q0 141 166 223q121 59 289 60q248 0 369 -111q78 -76 77 -227v-404q2 -78 9 -92q8 -23 34 -23q14 0 37 23 q7 4 15 12l114 -139q-131 -104 -260 -104q-137 0 -221 88q-8 8 -14 16q-154 -104 -326 -104q-197 0 -283 131q-43 66 -43 149zM176 1288q0 92 80 129q28 13 61 13q80 0 123 -74l17 -43q4 -16 4 -31q0 -80 -74 -119q-31 -18 -68 -18q-88 0 -126 78q-16 31 -17 65zM406 305 q0 -80 67 -98q14 -4 29 -4q84 -1 162 71v205q-256 -47 -258 -174zM655 1288q0 92 80 129q29 13 62 13q80 0 123 -74l16 -43q4 -16 4 -31q0 -80 -74 -119q-31 -18 -67 -18q-88 0 -127 78q-16 31 -17 65z" />
<glyph unicode="&#xe5;" horiz-adv-x="1187" d="M57 262q0 233 308 326q133 41 299 55v105q0 111 -129 110q-72 0 -113 -37q-18 -14 -19 -53q0 -68 -28 -102q-45 -55 -129 -56q-92 0 -135 82q-16 33 -17 72q0 141 166 223q121 59 289 60q248 0 369 -111q78 -76 77 -227v-404q2 -78 9 -92q8 -23 34 -23q14 0 37 23 q7 4 15 12l114 -139q-131 -104 -260 -104q-137 0 -221 88q-8 8 -14 16q-154 -104 -326 -104q-197 0 -283 131q-43 66 -43 149zM338 1337q0 111 96 174q52 35 115 35q119 0 180 -98l23 -49q10 -33 10 -66q0 -109 -96 -170q-53 -35 -115 -35q-115 0 -178 95q-35 53 -35 114z M406 305q0 -80 67 -98q14 -4 29 -4q84 -1 162 71v205q-256 -47 -258 -174zM477 1339q0 -55 49 -73q10 -4 23 -4q51 0 69 51q4 12 5 24q0 53 -50 72q-12 4 -24 4q-49 0 -68 -47q-4 -12 -4 -27z" />
<glyph unicode="&#xe6;" horiz-adv-x="1802" d="M57 272q0 231 322 320q147 39 350 43q0 133 -29 178q-35 53 -125 53q-78 0 -114 -37q-20 -18 -33 -59l-12 -45q-29 -94 -125 -109q-12 -2 -27 -2q-104 0 -139 88q-10 27 -10 58q0 147 170 227q123 59 295 60q197 0 323 -80q8 -4 17 -11q150 90 317 91q262 0 399 -175 l41 -61q53 -98 54 -221q-1 -33 -5 -105h-679q6 -78 24 -131q45 -121 176 -145q27 -6 56 -6q150 0 260 155q6 10 14 21l168 -86q-100 -225 -342 -291q-80 -20 -166 -20q-209 0 -373 135q-18 16 -37 33q-145 -166 -399 -168q-231 0 -326 139q-45 66 -45 151zM406 285 q0 -82 86 -99q16 -4 34 -4q117 0 172 125q29 66 29 152h-14q-63 0 -121 -15q-178 -55 -186 -159zM1055 643h327v33l-4 59q-23 102 -106 125q-18 6 -39 6q-96 0 -141 -82l-15 -30q-12 -37 -22 -111z" />
<glyph unicode="&#xe7;" horiz-adv-x="1187" d="M63 514q0 285 207 430q143 102 355 103q231 0 366 -123q88 -78 88 -179q0 -102 -88 -147q-37 -20 -82 -20q-92 0 -145 69q-25 35 -25 70l2 59q0 47 -63 72q-25 10 -51 10q-129 0 -176 -176q-20 -78 -21 -180q0 -180 109 -273q59 -49 131 -49q182 0 291 201l165 -86 q-70 -178 -262 -264q-112 -47 -239 -49v-72q47 4 73 4q104 0 148 -84q16 -33 16 -70q0 -117 -112 -170q-57 -27 -127 -26q-135 0 -187 71q-16 25 -16 52q0 59 55 67q6 2 14 2q29 0 64 -24q43 -35 76 -35q51 0 61 49q2 8 2 16q0 80 -125 84q-27 0 -67 -4l16 144 q-117 25 -190 63q-182 94 -242 307q-20 76 -21 158z" />
<glyph unicode="&#xe8;" horiz-adv-x="1187" d="M63 518q0 260 185 410q145 119 354 119q246 0 387 -154l43 -53q6 -10 12 -21q54 -96 54 -299h-664l6 -94q33 -195 197 -219q20 -4 45 -4q152 0 268 174l172 -84q-63 -102 -114 -158q-150 -150 -387 -153q-270 0 -431 182q-127 145 -127 354zM252 1362q0 84 74 129 q33 20 69 20q76 0 172 -84l215 -192l-41 -100l-325 69q-164 37 -164 158zM446 678h289q-4 152 -90 174q-20 6 -45 6q-119 0 -147 -129z" />
<glyph unicode="&#xe9;" horiz-adv-x="1187" d="M63 518q0 260 185 410q145 119 354 119q246 0 387 -154l43 -53q6 -10 12 -21q54 -96 54 -299h-664l6 -94q33 -195 197 -219q20 -4 45 -4q152 0 268 174l172 -84q-63 -102 -114 -158q-150 -150 -387 -153q-270 0 -431 182q-127 145 -127 354zM424 1235l215 192 q96 84 172 84q82 0 125 -75q18 -35 18 -74q0 -117 -147 -154l-16 -4l-326 -69zM446 678h289q-4 152 -90 174q-20 6 -45 6q-119 0 -147 -129z" />
<glyph unicode="&#xea;" horiz-adv-x="1187" d="M63 518q0 260 185 410q145 119 354 119q246 0 387 -154l43 -53q6 -10 12 -21q54 -96 54 -299h-664l6 -94q33 -195 197 -219q20 -4 45 -4q152 0 268 174l172 -84q-63 -102 -114 -158q-150 -150 -387 -153q-270 0 -431 182q-127 145 -127 354zM229 1274l373 223l369 -223 l-78 -137l-295 110l-291 -110zM446 678h289q-4 152 -90 174q-20 6 -45 6q-119 0 -147 -129z" />
<glyph unicode="&#xeb;" horiz-adv-x="1187" d="M63 518q0 260 185 410q145 119 354 119q246 0 387 -154l43 -53q6 -10 12 -21q54 -96 54 -299h-664l6 -94q33 -195 197 -219q20 -4 45 -4q152 0 268 174l172 -84q-63 -102 -114 -158q-150 -150 -387 -153q-270 0 -431 182q-127 145 -127 354zM217 1288q0 92 80 129 q28 13 61 13q80 0 123 -74l17 -43q4 -16 4 -31q0 -80 -74 -119q-31 -18 -68 -18q-88 0 -127 78q-16 31 -16 65zM446 678h289q-4 152 -90 174q-20 6 -45 6q-119 0 -147 -129zM696 1288q0 92 80 129q29 13 62 13q80 0 123 -74l16 -43q4 -16 4 -31q0 -80 -74 -119 q-31 -18 -67 -18q-88 0 -127 78q-16 31 -17 65z" />
<glyph unicode="&#xec;" horiz-adv-x="737" d="M45 0v166l66 14q66 14 79 51q10 29 11 105v295q0 123 -49 151q-23 12 -64 17l-43 4v166l361 59h126v-692q0 -106 29 -131q18 -14 62 -25l63 -14v-166h-641zM45 1362q0 84 74 129q33 20 69 20q76 0 172 -84l215 -192l-40 -100l-326 69q-164 37 -164 158z" />
<glyph unicode="&#xed;" horiz-adv-x="737" d="M45 0v166l66 14q66 14 79 51q10 29 11 105v295q0 123 -49 151q-23 12 -64 17l-43 4v166l361 59h126v-692q0 -106 29 -131q18 -14 62 -25l63 -14v-166h-641zM156 1235l215 192q96 84 172 84q82 0 125 -75q18 -35 18 -74q0 -117 -147 -154q-8 -2 -17 -4l-325 -69z" />
<glyph unicode="&#xee;" horiz-adv-x="737" d="M-4 1274l373 223l368 -223l-78 -137l-294 110l-291 -110zM45 0v166l66 14q66 14 79 51q10 29 11 105v295q0 123 -49 151q-23 12 -64 17l-43 4v166l361 59h126v-692q0 -106 29 -131q18 -14 62 -25l63 -14v-166h-641z" />
<glyph unicode="&#xef;" horiz-adv-x="737" d="M-4 1288q0 92 80 129q28 13 61 13q80 0 123 -74l16 -43q4 -16 5 -31q0 -80 -74 -119q-31 -18 -68 -18q-88 0 -127 78q-16 31 -16 65zM45 0v166l66 14q66 14 79 51q10 29 11 105v295q0 123 -49 151q-23 12 -64 17l-43 4v166l361 59h126v-692q0 -106 29 -131q18 -14 62 -25 l63 -14v-166h-641zM475 1288q0 92 80 129q28 13 61 13q80 0 123 -74l17 -43q4 -16 4 -31q0 -80 -74 -119q-31 -18 -68 -18q-88 0 -126 78q-16 31 -17 65z" />
<glyph unicode="&#xf0;" horiz-adv-x="1269" d="M63 520q0 264 191 412q150 115 326 115q55 0 114 -13q-131 160 -276 223l-248 -163l-70 104l174 117q-98 29 -211 49l54 111q156 -2 309 -39l244 159l71 -112l-143 -92q215 -92 338 -209q186 -184 244 -471q18 -90 18 -179q0 -332 -240 -473q-135 -78 -327 -77 q-309 0 -463 202q-104 137 -105 336zM436 504q0 -324 197 -324q176 0 190 273q2 23 2 47q1 338 -192 338q-197 0 -197 -334z" />
<glyph unicode="&#xf1;" horiz-adv-x="1392" d="M45 0v166l59 14q66 16 80 53q10 27 11 103v295q0 119 -43 147l-41 17q-12 2 -29 4l-37 4v166l320 59h127v-88q193 106 372 107q156 0 244 -97q70 -74 76 -190v-39v-385q0 -106 28 -131q18 -14 62 -25l61 -14v-166h-610v166l37 10q66 18 80 55q10 29 10 105v358 q0 131 -92 131q-100 0 -234 -90v-399q0 -106 31 -133q16 -14 59 -27l37 -10v-166h-608zM299 1231q49 143 176 186q41 14 82 15q61 0 141 -27q96 -33 136 -33q51 0 77 39q3 4 7 10l102 -51q-51 -180 -182 -209q-33 -6 -70 -6q-61 0 -164 33q-16 6 -43 14q-47 14 -78 15 q-43 0 -77 -50z" />
<glyph unicode="&#xf2;" horiz-adv-x="1269" d="M63 528q0 266 197 412q148 107 361 107q319 0 475 -207q102 -135 102 -332q0 -281 -207 -424q-145 -102 -360 -102q-319 0 -471 213q-96 137 -97 333zM305 1362q0 84 74 129q33 20 70 20q76 0 172 -84l215 -192l-41 -100l-326 69q-164 37 -164 158zM436 504 q0 -324 197 -324q176 0 190 273q2 23 2 47q1 338 -192 338q-197 0 -197 -334z" />
<glyph unicode="&#xf3;" horiz-adv-x="1269" d="M63 528q0 266 197 412q148 107 361 107q319 0 475 -207q102 -135 102 -332q0 -281 -207 -424q-145 -102 -360 -102q-319 0 -471 213q-96 137 -97 333zM436 504q0 -324 197 -324q176 0 190 273q2 23 2 47q1 338 -192 338q-197 0 -197 -334zM461 1235l215 192q96 84 172 84 q82 0 125 -75q18 -35 18 -74q0 -117 -147 -154q-8 -2 -17 -4l-325 -69z" />
<glyph unicode="&#xf4;" horiz-adv-x="1269" d="M63 528q0 266 197 412q148 107 361 107q319 0 475 -207q102 -135 102 -332q0 -281 -207 -424q-145 -102 -360 -102q-319 0 -471 213q-96 137 -97 333zM260 1274l373 223l368 -223l-77 -137l-295 110l-291 -110zM436 504q0 -324 197 -324q176 0 190 273q2 23 2 47 q1 338 -192 338q-197 0 -197 -334z" />
<glyph unicode="&#xf5;" horiz-adv-x="1269" d="M63 528q0 266 197 412q148 107 361 107q319 0 475 -207q102 -135 102 -332q0 -281 -207 -424q-145 -102 -360 -102q-319 0 -471 213q-96 137 -97 333zM285 1231q49 143 176 186q41 14 82 15q61 0 141 -27q96 -33 135 -33q51 0 78 39q2 4 6 10l103 -51q-51 -180 -183 -209 q-33 -6 -69 -6q-61 0 -164 33q-16 6 -43 14q-47 14 -78 15q-43 0 -78 -50zM436 504q0 -324 197 -324q176 0 190 273q2 23 2 47q1 338 -192 338q-197 0 -197 -334z" />
<glyph unicode="&#xf6;" horiz-adv-x="1269" d="M63 528q0 266 197 412q148 107 361 107q319 0 475 -207q102 -135 102 -332q0 -281 -207 -424q-145 -102 -360 -102q-319 0 -471 213q-96 137 -97 333zM250 1288q0 92 80 129q28 13 61 13q80 0 123 -74l16 -43q4 -16 5 -31q0 -80 -74 -119q-31 -18 -68 -18q-88 0 -127 78 q-16 31 -16 65zM436 504q0 -324 197 -324q176 0 190 273q2 23 2 47q1 338 -192 338q-197 0 -197 -334zM729 1288q0 92 80 129q28 13 61 13q80 0 123 -74l17 -43q4 -16 4 -31q0 -80 -74 -119q-31 -18 -68 -18q-88 0 -127 78q-16 31 -16 65z" />
<glyph unicode="&#xf7;" horiz-adv-x="1228" d="M104 602v240h1033v-240h-1033zM455 315q0 94 84 142q39 22 84 22q94 0 141 -82q23 -39 22 -84q0 -94 -81 -143q-39 -23 -84 -23q-96 0 -144 84q-23 39 -22 84zM455 1133q0 94 84 141q39 22 84 22q94 0 141 -82q23 -39 22 -84q0 -98 -84 -145q-39 -20 -81 -20 q-96 0 -144 84q-23 39 -22 84z" />
<glyph unicode="&#xf8;" horiz-adv-x="1269" d="M63 522q0 287 209 430q141 94 346 95q145 0 267 -46l76 117h165l-118 -180q193 -147 192 -422q0 -274 -199 -424q-147 -111 -362 -110q-141 0 -246 41l-65 -105h-168l106 166q-199 156 -203 438zM436 502q1 -64 17 -160l297 461q-59 45 -117 45q-197 0 -197 -346z M530 215q47 -25 97 -25q201 0 200 316q0 74 -10 156z" />
<glyph unicode="&#xf9;" d="M45 803v166l354 59h127v-676q0 -115 41 -137q20 -10 62 -10q92 0 223 78v348q0 119 -43 147l-41 17q-12 2 -29 4l-37 4v166l355 59h127v-692q0 -106 28 -131q18 -14 62 -25l63 -14v-166h-450v80q-166 -96 -307 -105l-52 -2q-147 0 -239 76q-76 68 -90 191q-4 45 -4 106 v285q0 119 -43 147l-41 17q-12 2 -29 4zM338 1362q0 84 74 129q33 20 69 20q76 0 172 -84l215 -192l-41 -100l-325 69q-164 37 -164 158z" />
<glyph unicode="&#xfa;" d="M45 803v166l354 59h127v-676q0 -115 41 -137q20 -10 62 -10q92 0 223 78v348q0 119 -43 147l-41 17q-12 2 -29 4l-37 4v166l355 59h127v-692q0 -106 28 -131q18 -14 62 -25l63 -14v-166h-450v80q-166 -96 -307 -105l-52 -2q-147 0 -239 76q-76 68 -90 191q-4 45 -4 106 v285q0 119 -43 147l-41 17q-12 2 -29 4zM494 1235l215 192q96 84 172 84q82 0 125 -75q18 -35 18 -74q0 -117 -147 -154q-8 -2 -17 -4l-325 -69z" />
<glyph unicode="&#xfb;" d="M45 803v166l354 59h127v-676q0 -115 41 -137q20 -10 62 -10q92 0 223 78v348q0 119 -43 147l-41 17q-12 2 -29 4l-37 4v166l355 59h127v-692q0 -106 28 -131q18 -14 62 -25l63 -14v-166h-450v80q-166 -96 -307 -105l-52 -2q-147 0 -239 76q-76 68 -90 191q-4 45 -4 106 v285q0 119 -43 147l-41 17q-12 2 -29 4zM293 1274l373 223l368 -223l-78 -137l-294 110l-291 -110z" />
<glyph unicode="&#xfc;" d="M45 803v166l354 59h127v-676q0 -115 41 -137q20 -10 62 -10q92 0 223 78v348q0 119 -43 147l-41 17q-12 2 -29 4l-37 4v166l355 59h127v-692q0 -106 28 -131q18 -14 62 -25l63 -14v-166h-450v80q-166 -96 -307 -105l-52 -2q-147 0 -239 76q-76 68 -90 191q-4 45 -4 106 v285q0 119 -43 147l-41 17q-12 2 -29 4zM291 1288q0 92 80 129q28 13 61 13q80 0 123 -74l16 -43q4 -16 4 -31q0 -80 -73 -119q-31 -18 -68 -18q-88 0 -127 78q-16 31 -16 65zM770 1288q0 92 80 129q28 13 61 13q80 0 123 -74l17 -43q4 -16 4 -31q0 -80 -74 -119 q-31 -18 -68 -18q-88 0 -127 78q-16 31 -16 65z" />
<glyph unicode="&#xfd;" horiz-adv-x="1269" d="M12 860v168h637v-168h-22q-111 0 -113 -51q0 -12 8 -41l152 -385l145 381q8 16 8 39q0 57 -94 57h-24v168h546v-168l-24 -4q-98 -25 -144 -84q-27 -35 -61 -108l-352 -760q-72 -154 -109 -201q-6 -6 -12 -14q-102 -127 -266 -140q-16 -2 -31 -2q-145 0 -201 99 q-20 37 -20 82q0 104 86 149q35 18 76 19q70 0 135 -60q16 -16 28 -16q29 0 95 106q27 43 45 84l-310 699q-45 104 -81 127q-20 12 -64 20zM446 1235l216 192q96 84 172 84q82 0 124 -75q18 -35 19 -74q0 -117 -148 -154l-16 -4l-326 -69z" />
<glyph unicode="&#xfe;" horiz-adv-x="1310" d="M45 -270l59 14q66 16 80 53q10 27 11 103v1185q0 119 -43 148l-41 16q-12 2 -29 4l-37 4v166l324 60h155v-504q111 68 246 68q231 0 371 -177q111 -139 110 -340q0 -268 -168 -426q-129 -123 -311 -122q-98 0 -223 49l-23 8v-139q0 -106 29 -131q18 -14 61 -25l60 -14 v-166h-631v166zM526 254q68 -63 160 -64q156 0 205 187q18 70 18 158q0 223 -118 290l-46 19q-18 4 -38 4q-103 0 -181 -82v-512z" />
<glyph unicode="&#xff;" horiz-adv-x="1269" d="M12 860v168h637v-168h-22q-111 0 -113 -51q0 -12 8 -41l152 -385l145 381q8 16 8 39q0 57 -94 57h-24v168h546v-168l-24 -4q-98 -25 -144 -84q-27 -35 -61 -108l-352 -760q-72 -154 -109 -201q-6 -6 -12 -14q-102 -127 -266 -140q-16 -2 -31 -2q-145 0 -201 99 q-20 37 -20 82q0 104 86 149q35 18 76 19q70 0 135 -60q16 -16 28 -16q29 0 95 106q27 43 45 84l-310 699q-45 104 -81 127q-20 12 -64 20zM252 1288q0 92 80 129q28 13 61 13q80 0 123 -74l16 -43q4 -16 5 -31q0 -80 -74 -119q-31 -18 -68 -18q-88 0 -127 78q-16 31 -16 65 zM731 1288q0 92 80 129q28 13 61 13q80 0 123 -74l17 -43q4 -16 4 -31q0 -80 -74 -119q-31 -18 -68 -18q-88 0 -126 78q-16 31 -17 65z" />
<glyph unicode="&#x152;" horiz-adv-x="2498" d="M72 678v27q0 303 213 507q215 209 536 209q279 0 449 -139v113h962l201 -408l-152 -74q-160 219 -358 273q-92 25 -209 24q-109 0 -131 -41l-12 -39l-2 -49v-247h28l95 4q90 14 118 92q14 45 23 135h166v-670h-166q-12 170 -66 213l-34 21l-62 10q-20 2 -45 2 q-31 0 -57 -2v-303q0 -119 14 -135q2 -2 10 -8q39 -25 131 -25q133 0 246 43q133 51 219 151l140 173l24 30l144 -67l-228 -498h-999v113q-227 -139 -471 -140q-297 0 -508 205q-209 205 -219 500zM465 709q0 -236 102 -398q92 -150 267 -149q213 0 317 209q70 139 70 342 q0 313 -162 454q-88 76 -209 76q-211 0 -315 -201q-70 -137 -70 -333z" />
<glyph unicode="&#x153;" horiz-adv-x="1925" d="M63 502q0 287 205 436q147 109 363 109q197 0 362 -119q168 119 367 119q238 0 377 -162l43 -62q59 -102 59 -227q0 -19 -4 -76h-674v-26q0 -188 129 -261q53 -31 121 -30q168 0 277 174l172 -84q-49 -109 -121 -172q-145 -127 -359 -139h-32q-186 0 -336 102 q-10 6 -19 12q-203 -115 -395 -114q-270 0 -422 184q-113 137 -113 336zM412 510q10 -332 202 -340q129 0 181 162q23 74 22 174q0 233 -115 311l-43 21q-20 6 -45 6q-145 0 -188 -187q-14 -63 -14 -147zM1182 678h299q-2 139 -97 172l-47 8q-78 0 -123 -67q-6 -10 -10 -21 q-16 -37 -22 -92z" />
<glyph unicode="&#x178;" horiz-adv-x="1433" d="M-41 1227v168h778v-168q-152 -2 -159 -49q0 -12 32 -74l168 -305l160 264q57 96 57 119q0 33 -69 41q-31 4 -82 4v168h626v-168q-141 -8 -231 -103l-55 -67q-18 -27 -39 -58l-264 -409v-246q0 -102 24 -129q29 -35 115 -43l57 -4v-168h-751v168l57 4q86 8 115 43 q25 27 24 129v221l-286 449q-90 147 -170 186q-43 20 -107 27zM375 1655q0 92 80 129q28 12 61 12q80 0 123 -74l16 -43q4 -16 4 -30q0 -80 -73 -119q-31 -18 -68 -19q-88 0 -127 78q-16 31 -16 66zM854 1655q0 92 80 129q28 12 61 12q80 0 123 -74l17 -43q4 -16 4 -30 q0 -80 -74 -119q-31 -18 -68 -19q-88 0 -127 78q-16 31 -16 66z" />
<glyph unicode="&#x2c6;" horiz-adv-x="1024" d="M139 1274l373 223l369 -223l-78 -137l-295 110l-291 -110z" />
<glyph unicode="&#x2dc;" horiz-adv-x="983" d="M141 1231q49 143 176 186q41 14 82 15q61 0 142 -27q96 -33 135 -33q51 0 78 39q2 4 6 10l102 -51q-51 -180 -182 -209q-33 -6 -70 -6q-61 0 -164 33q-16 6 -43 14q-47 14 -77 15q-43 0 -78 -50z" />
<glyph unicode="&#x2000;" horiz-adv-x="946" />
<glyph unicode="&#x2001;" horiz-adv-x="1892" />
<glyph unicode="&#x2002;" horiz-adv-x="946" />
<glyph unicode="&#x2003;" horiz-adv-x="1892" />
<glyph unicode="&#x2004;" horiz-adv-x="630" />
<glyph unicode="&#x2005;" horiz-adv-x="473" />
<glyph unicode="&#x2006;" horiz-adv-x="315" />
<glyph unicode="&#x2007;" horiz-adv-x="315" />
<glyph unicode="&#x2008;" horiz-adv-x="236" />
<glyph unicode="&#x2009;" horiz-adv-x="378" />
<glyph unicode="&#x200a;" horiz-adv-x="105" />
<glyph unicode="&#x2010;" horiz-adv-x="737" d="M41 430l96 221h559l-92 -221h-563z" />
<glyph unicode="&#x2011;" horiz-adv-x="737" d="M41 430l96 221h559l-92 -221h-563z" />
<glyph unicode="&#x2012;" horiz-adv-x="737" d="M41 430l96 221h559l-92 -221h-563z" />
<glyph unicode="&#x2013;" horiz-adv-x="1024" d="M-51 434l100 221h1026l-94 -221h-1032z" />
<glyph unicode="&#x2014;" horiz-adv-x="2048" d="M-51 434l100 221h2050l-94 -221h-2056z" />
<glyph unicode="&#x2018;" horiz-adv-x="655" d="M168 1092q0 160 151 288q25 23 56 41l88 -92q-68 -59 -101 -121q133 -25 134 -149q0 -100 -84 -144q-35 -18 -76 -18q-109 0 -152 102q-16 41 -16 93z" />
<glyph unicode="&#x2019;" horiz-adv-x="655" d="M168 1260q0 100 84 143q35 18 76 18q109 0 151 -102q16 -41 17 -92q0 -160 -152 -289q-24 -23 -55 -41l-88 92q68 59 100 121q-133 25 -133 150z" />
<glyph unicode="&#x201a;" horiz-adv-x="655" d="M168 141q0 100 84 144q35 18 76 18q109 0 151 -102q16 -41 17 -92q0 -160 -152 -289q-24 -23 -55 -41l-88 92q68 59 100 121q-133 25 -133 149z" />
<glyph unicode="&#x201c;" horiz-adv-x="1105" d="M168 1092q0 160 151 288q25 23 56 41l88 -92q-72 -66 -101 -121q133 -25 134 -149q0 -100 -84 -144q-35 -18 -76 -18q-111 0 -152 104q-16 41 -16 91zM592 1092q0 160 151 288q25 23 56 41l88 -92q-68 -59 -101 -121q133 -25 134 -149q0 -100 -84 -144q-35 -18 -76 -18 q-111 0 -152 104q-16 41 -16 91z" />
<glyph unicode="&#x201d;" horiz-adv-x="1105" d="M168 1260q0 100 84 143q35 18 76 18q111 0 151 -104q16 -41 17 -90q0 -160 -152 -289q-24 -23 -55 -41l-88 92q68 59 100 121q-133 25 -133 150zM592 1260q0 100 84 143q35 18 76 18q111 0 151 -104q16 -41 17 -90q0 -160 -152 -289q-24 -23 -55 -41l-88 92 q72 66 100 121q-133 25 -133 150z" />
<glyph unicode="&#x201e;" horiz-adv-x="1105" d="M168 141q0 100 84 144q35 18 76 18q111 0 151 -104q16 -41 17 -90q0 -160 -152 -289q-24 -23 -55 -41l-88 92q68 59 100 121q-133 25 -133 149zM594 141q0 100 84 144q35 18 76 18q111 0 151 -104q16 -41 17 -90q0 -160 -152 -289q-24 -23 -55 -41l-88 92q72 66 100 121 q-133 25 -133 149z" />
<glyph unicode="&#x2022;" horiz-adv-x="942" d="M123 788q0 168 131 275q96 78 221 78q168 0 275 -131q78 -96 77 -219q0 -174 -133 -279q-68 -53 -153 -70q-35 -6 -70 -6q-164 0 -268 129q-80 98 -80 223z" />
<glyph unicode="&#x2026;" horiz-adv-x="2048" d="M156 164q0 98 88 153q47 29 100 29q104 0 158 -88q27 -45 26 -96q0 -104 -88 -160q-45 -29 -98 -29q-106 0 -160 90q-27 47 -26 101zM838 162q0 100 88 155q45 27 98 27q104 0 158 -88q27 -45 26 -96q0 -102 -88 -158l-47 -20l-51 -9q-102 0 -158 90q-27 45 -26 99z M1518 164q0 98 88 153q47 29 100 29q104 0 158 -88q27 -45 26 -96q0 -104 -88 -160q-45 -29 -98 -29q-106 0 -160 90q-27 47 -26 101z" />
<glyph unicode="&#x202f;" horiz-adv-x="378" />
<glyph unicode="&#x2039;" horiz-adv-x="450" d="M70 535l209 346l106 -58l-106 -288l106 -320l-106 -63z" />
<glyph unicode="&#x203a;" horiz-adv-x="450" d="M70 215l106 320l-106 288l106 58l209 -346l-209 -383z" />
<glyph unicode="&#x205f;" horiz-adv-x="473" />
<glyph unicode="&#x20ac;" d="M18 436l62 164h72q-6 61 -7 100v33h-127l62 164h86q84 373 366 483q104 41 230 41q164 0 301 -73l14 47h123l103 -359l-140 -57q-84 129 -131 174q-111 100 -223 100q-215 0 -289 -299q-6 -27 -12 -57h485l-59 -164h-442v-33q0 -18 4 -100h393l-64 -164h-299 q51 -174 189 -243q59 -31 123 -31q176 0 309 176l16 24v-268q-164 -102 -282 -117q-37 -4 -86 -4q-293 0 -478 215q-90 104 -135 248h-164z" />
<glyph unicode="&#x2122;" horiz-adv-x="2007" d="M86 1141l92 254h653l99 -254l-90 -35q-51 84 -80 108q-68 68 -133 68q-16 0 -19 -12v-31v-473q0 -78 41 -96q16 -6 45 -8l39 -3v-100h-454v100l36 3q63 6 76 47q6 20 6 57v471q0 41 -16 43q-55 0 -123 -59q-8 -6 -16 -15q-35 -37 -64 -100zM934 559v100l24 3q66 8 78 40 q6 20 6 64v422q0 76 -32 92l-49 12h-3l-24 2v101h383l153 -502l156 502h385v-101l-26 -2q-66 -8 -78 -41q-8 -20 -9 -63v-422q0 -76 33 -92q16 -8 54 -12l26 -3v-100h-430v100l25 3q63 8 75 40q6 20 7 64v434l-213 -641h-101l-211 649v-442q0 -76 33 -92q16 -8 51 -12l25 -3 v-100h-338z" />
<glyph unicode="&#x25fc;" horiz-adv-x="1024" d="M0 0v1024h1024v-1024h-1024z" />
</font>
</defs>
</svg>
